<?xml version="1.0" encoding="UTF-8" standalone="no"?>
<!DOCTYPE svg PUBLIC "-//W3C//DTD SVG 1.1//EN"
 "http://www.w3.org/Graphics/SVG/1.1/DTD/svg11.dtd">
<!-- Generated by graphviz version 2.50.0 (20211209.0339)
 -->
<!-- Title: snakemake_dag Pages: 1 -->
<svg width="1244pt" height="409pt"
 viewBox="0.00 0.00 1244.00 409.00" xmlns="http://www.w3.org/2000/svg" xmlns:xlink="http://www.w3.org/1999/xlink">
<g id="graph0" class="graph" transform="scale(1 1) rotate(0) translate(4 405)">
<title>snakemake_dag</title>
<polygon fill="white" stroke="transparent" points="-4,4 -4,-405 1240,-405 1240,4 -4,4"/>
<!-- 0 -->
<g id="node1" class="node">
<title>0</title>
<path fill="none" stroke="#88d856" stroke-width="2" d="M524.5,-36C524.5,-36 473.5,-36 473.5,-36 467.5,-36 461.5,-30 461.5,-24 461.5,-24 461.5,-12 461.5,-12 461.5,-6 467.5,0 473.5,0 473.5,0 524.5,0 524.5,0 530.5,0 536.5,-6 536.5,-12 536.5,-12 536.5,-24 536.5,-24 536.5,-30 530.5,-36 524.5,-36"/>
<text text-anchor="middle" x="499" y="-15.5" font-family="sans" font-size="10.00">cONTsensus</text>
</g>
<!-- 1 -->
<g id="node2" class="node">
<title>1</title>
<path fill="none" stroke="#568ad8" stroke-width="2" d="M123,-401C123,-401 93,-401 93,-401 87,-401 81,-395 81,-389 81,-389 81,-377 81,-377 81,-371 87,-365 93,-365 93,-365 123,-365 123,-365 129,-365 135,-371 135,-377 135,-377 135,-389 135,-389 135,-395 129,-401 123,-401"/>
<text text-anchor="middle" x="108" y="-380.5" font-family="sans" font-size="10.00">Init</text>
</g>
<!-- 1&#45;&gt;0 -->
<g id="edge1" class="edge">
<title>1&#45;&gt;0</title>
<path fill="none" stroke="grey" stroke-width="2" d="M82.68,-364.83C50.76,-340.92 0,-294.36 0,-240 0,-240 0,-240 0,-163.5 0,-114.38 20.07,-97.59 62,-72 126.5,-32.63 352.11,-22.46 451.44,-19.87"/>
<polygon fill="grey" stroke="grey" stroke-width="2" points="451.59,-23.37 461.5,-19.62 451.42,-16.37 451.59,-23.37"/>
</g>
<!-- 2 -->
<g id="node3" class="node">
<title>2</title>
<path fill="none" stroke="#d85656" stroke-width="2" d="M127,-329C127,-329 89,-329 89,-329 83,-329 77,-323 77,-317 77,-317 77,-305 77,-305 77,-299 83,-293 89,-293 89,-293 127,-293 127,-293 133,-293 139,-299 139,-305 139,-305 139,-317 139,-317 139,-323 133,-329 127,-329"/>
<text text-anchor="middle" x="108" y="-308.5" font-family="sans" font-size="10.00">Porechop</text>
</g>
<!-- 1&#45;&gt;2 -->
<g id="edge18" class="edge">
<title>1&#45;&gt;2</title>
<path fill="none" stroke="grey" stroke-width="2" d="M108,-364.7C108,-356.98 108,-347.71 108,-339.11"/>
<polygon fill="grey" stroke="grey" stroke-width="2" points="111.5,-339.1 108,-329.1 104.5,-339.1 111.5,-339.1"/>
</g>
<!-- 3 -->
<g id="node4" class="node">
<title>3</title>
<path fill="none" stroke="#d8bc56" stroke-width="2" d="M612.5,-329C612.5,-329 539.5,-329 539.5,-329 533.5,-329 527.5,-323 527.5,-317 527.5,-317 527.5,-305 527.5,-305 527.5,-299 533.5,-293 539.5,-293 539.5,-293 612.5,-293 612.5,-293 618.5,-293 624.5,-299 624.5,-305 624.5,-305 624.5,-317 624.5,-317 624.5,-323 618.5,-329 612.5,-329"/>
<text text-anchor="middle" x="576" y="-308.5" font-family="sans" font-size="10.00">Guppy_Barcoder</text>
</g>
<!-- 1&#45;&gt;3 -->
<g id="edge19" class="edge">
<title>1&#45;&gt;3</title>
<path fill="none" stroke="grey" stroke-width="2" d="M135.18,-377.93C209.12,-366.88 415.12,-336.06 517.17,-320.8"/>
<polygon fill="grey" stroke="grey" stroke-width="2" points="517.94,-324.22 527.31,-319.28 516.9,-317.3 517.94,-324.22"/>
</g>
<!-- 2&#45;&gt;0 -->
<g id="edge2" class="edge">
<title>2&#45;&gt;0</title>
<path fill="none" stroke="grey" stroke-width="2" d="M98.78,-292.7C76.88,-248.94 27.81,-133.05 87,-72 112.02,-46.19 348.03,-28.43 451.16,-21.84"/>
<polygon fill="grey" stroke="grey" stroke-width="2" points="451.54,-25.32 461.3,-21.2 451.1,-18.34 451.54,-25.32"/>
</g>
<!-- 5 -->
<g id="node6" class="node">
<title>5</title>
<path fill="none" stroke="#d88d56" stroke-width="2" d="M173,-257C173,-257 143,-257 143,-257 137,-257 131,-251 131,-245 131,-245 131,-233 131,-233 131,-227 137,-221 143,-221 143,-221 173,-221 173,-221 179,-221 185,-227 185,-233 185,-233 185,-245 185,-245 185,-251 179,-257 173,-257"/>
<text text-anchor="middle" x="158" y="-236.5" font-family="sans" font-size="10.00">Filtlong</text>
</g>
<!-- 2&#45;&gt;5 -->
<g id="edge21" class="edge">
<title>2&#45;&gt;5</title>
<path fill="none" stroke="grey" stroke-width="2" d="M120.36,-292.7C126.23,-284.47 133.37,-274.48 139.84,-265.42"/>
<polygon fill="grey" stroke="grey" stroke-width="2" points="142.82,-267.28 145.78,-257.1 137.12,-263.21 142.82,-267.28"/>
</g>
<!-- 3&#45;&gt;0 -->
<g id="edge3" class="edge">
<title>3&#45;&gt;0</title>
<path fill="none" stroke="grey" stroke-width="2" d="M578.73,-292.74C584.35,-251.91 593.8,-147.21 557,-72 551.52,-60.8 542.56,-50.84 533.3,-42.67"/>
<polygon fill="grey" stroke="grey" stroke-width="2" points="535.46,-39.91 525.53,-36.23 531,-45.3 535.46,-39.91"/>
</g>
<!-- 4 -->
<g id="node5" class="node">
<title>4</title>
<path fill="none" stroke="#59d856" stroke-width="2" d="M746.5,-257C746.5,-257 675.5,-257 675.5,-257 669.5,-257 663.5,-251 663.5,-245 663.5,-245 663.5,-233 663.5,-233 663.5,-227 669.5,-221 675.5,-221 675.5,-221 746.5,-221 746.5,-221 752.5,-221 758.5,-227 758.5,-233 758.5,-233 758.5,-245 758.5,-245 758.5,-251 752.5,-257 746.5,-257"/>
<text text-anchor="middle" x="711" y="-236.5" font-family="sans" font-size="10.00">ProwlerTrimmer</text>
</g>
<!-- 3&#45;&gt;4 -->
<g id="edge20" class="edge">
<title>3&#45;&gt;4</title>
<path fill="none" stroke="grey" stroke-width="2" d="M609.02,-292.88C627.08,-283.51 649.65,-271.81 668.95,-261.8"/>
<polygon fill="grey" stroke="grey" stroke-width="2" points="670.58,-264.9 677.85,-257.19 667.36,-258.69 670.58,-264.9"/>
</g>
<!-- 4&#45;&gt;0 -->
<g id="edge4" class="edge">
<title>4&#45;&gt;0</title>
<path fill="none" stroke="grey" stroke-width="2" d="M683.3,-220.9C669.85,-211.56 654.21,-199.04 643,-185 608.39,-141.65 627.44,-112.93 590,-72 577.72,-58.58 561.25,-47.59 545.69,-39.16"/>
<polygon fill="grey" stroke="grey" stroke-width="2" points="547.16,-35.98 536.67,-34.5 543.95,-42.2 547.16,-35.98"/>
</g>
<!-- 12 -->
<g id="node13" class="node">
<title>12</title>
<path fill="none" stroke="#56d88a" stroke-width="2" d="M757.5,-185C757.5,-185 664.5,-185 664.5,-185 658.5,-185 652.5,-179 652.5,-173 652.5,-173 652.5,-156 652.5,-156 652.5,-150 658.5,-144 664.5,-144 664.5,-144 757.5,-144 757.5,-144 763.5,-144 769.5,-150 769.5,-156 769.5,-156 769.5,-173 769.5,-173 769.5,-179 763.5,-185 757.5,-185"/>
<text text-anchor="middle" x="711" y="-173" font-family="sans" font-size="10.00">Guppy_Aligner_NCBI</text>
<text text-anchor="middle" x="711" y="-162" font-family="sans" font-size="10.00">project: barcode04</text>
<text text-anchor="middle" x="711" y="-151" font-family="sans" font-size="10.00">quality_filter: 6</text>
</g>
<!-- 4&#45;&gt;12 -->
<g id="edge28" class="edge">
<title>4&#45;&gt;12</title>
<path fill="none" stroke="grey" stroke-width="2" d="M711,-220.82C711,-213.2 711,-204 711,-195.32"/>
<polygon fill="grey" stroke="grey" stroke-width="2" points="714.5,-195.12 711,-185.12 707.5,-195.12 714.5,-195.12"/>
</g>
<!-- 13 -->
<g id="node14" class="node">
<title>13</title>
<path fill="none" stroke="#56d88a" stroke-width="2" d="M902.5,-185C902.5,-185 809.5,-185 809.5,-185 803.5,-185 797.5,-179 797.5,-173 797.5,-173 797.5,-156 797.5,-156 797.5,-150 803.5,-144 809.5,-144 809.5,-144 902.5,-144 902.5,-144 908.5,-144 914.5,-150 914.5,-156 914.5,-156 914.5,-173 914.5,-173 914.5,-179 908.5,-185 902.5,-185"/>
<text text-anchor="middle" x="856" y="-173" font-family="sans" font-size="10.00">Guppy_Aligner_NCBI</text>
<text text-anchor="middle" x="856" y="-162" font-family="sans" font-size="10.00">project: barcode04</text>
<text text-anchor="middle" x="856" y="-151" font-family="sans" font-size="10.00">quality_filter: 7</text>
</g>
<!-- 4&#45;&gt;13 -->
<g id="edge29" class="edge">
<title>4&#45;&gt;13</title>
<path fill="none" stroke="grey" stroke-width="2" d="M745.36,-220.82C763.95,-211.52 787.22,-199.89 807.62,-189.69"/>
<polygon fill="grey" stroke="grey" stroke-width="2" points="809.38,-192.72 816.76,-185.12 806.25,-186.46 809.38,-192.72"/>
</g>
<!-- 14 -->
<g id="node15" class="node">
<title>14</title>
<path fill="none" stroke="#56d88a" stroke-width="2" d="M1106.5,-185C1106.5,-185 1013.5,-185 1013.5,-185 1007.5,-185 1001.5,-179 1001.5,-173 1001.5,-173 1001.5,-156 1001.5,-156 1001.5,-150 1007.5,-144 1013.5,-144 1013.5,-144 1106.5,-144 1106.5,-144 1112.5,-144 1118.5,-150 1118.5,-156 1118.5,-156 1118.5,-173 1118.5,-173 1118.5,-179 1112.5,-185 1106.5,-185"/>
<text text-anchor="middle" x="1060" y="-173" font-family="sans" font-size="10.00">Guppy_Aligner_NCBI</text>
<text text-anchor="middle" x="1060" y="-162" font-family="sans" font-size="10.00">project: barcode04</text>
<text text-anchor="middle" x="1060" y="-151" font-family="sans" font-size="10.00">quality_filter: 8</text>
</g>
<!-- 4&#45;&gt;14 -->
<g id="edge30" class="edge">
<title>4&#45;&gt;14</title>
<path fill="none" stroke="grey" stroke-width="2" d="M758.8,-228.07C819.03,-215.56 922.95,-193.97 991.59,-179.71"/>
<polygon fill="grey" stroke="grey" stroke-width="2" points="992.37,-183.12 1001.45,-177.66 990.94,-176.27 992.37,-183.12"/>
</g>
<!-- 5&#45;&gt;0 -->
<g id="edge5" class="edge">
<title>5&#45;&gt;0</title>
<path fill="none" stroke="grey" stroke-width="2" d="M130.99,-223.07C117.49,-214 102.48,-201.07 95,-185 73.21,-138.19 81.71,-104.3 122,-72 171.85,-32.03 361.44,-22.2 451.26,-19.79"/>
<polygon fill="grey" stroke="grey" stroke-width="2" points="451.54,-23.28 461.45,-19.53 451.36,-16.28 451.54,-23.28"/>
</g>
<!-- 6 -->
<g id="node7" class="node">
<title>6</title>
<path fill="none" stroke="#56d8c1" stroke-width="2" d="M199.5,-185C199.5,-185 116.5,-185 116.5,-185 110.5,-185 104.5,-179 104.5,-173 104.5,-173 104.5,-156 104.5,-156 104.5,-150 110.5,-144 116.5,-144 116.5,-144 199.5,-144 199.5,-144 205.5,-144 211.5,-150 211.5,-156 211.5,-156 211.5,-173 211.5,-173 211.5,-179 205.5,-185 199.5,-185"/>
<text text-anchor="middle" x="158" y="-173" font-family="sans" font-size="10.00">BLAST</text>
<text text-anchor="middle" x="158" y="-162" font-family="sans" font-size="10.00">project: barcode04</text>
<text text-anchor="middle" x="158" y="-151" font-family="sans" font-size="10.00">quality_filter: 6</text>
</g>
<!-- 5&#45;&gt;6 -->
<g id="edge22" class="edge">
<title>5&#45;&gt;6</title>
<path fill="none" stroke="grey" stroke-width="2" d="M158,-220.82C158,-213.2 158,-204 158,-195.32"/>
<polygon fill="grey" stroke="grey" stroke-width="2" points="161.5,-195.12 158,-185.12 154.5,-195.12 161.5,-195.12"/>
</g>
<!-- 7 -->
<g id="node8" class="node">
<title>7</title>
<path fill="none" stroke="#56d8c1" stroke-width="2" d="M324.5,-185C324.5,-185 241.5,-185 241.5,-185 235.5,-185 229.5,-179 229.5,-173 229.5,-173 229.5,-156 229.5,-156 229.5,-150 235.5,-144 241.5,-144 241.5,-144 324.5,-144 324.5,-144 330.5,-144 336.5,-150 336.5,-156 336.5,-156 336.5,-173 336.5,-173 336.5,-179 330.5,-185 324.5,-185"/>
<text text-anchor="middle" x="283" y="-173" font-family="sans" font-size="10.00">BLAST</text>
<text text-anchor="middle" x="283" y="-162" font-family="sans" font-size="10.00">project: barcode04</text>
<text text-anchor="middle" x="283" y="-151" font-family="sans" font-size="10.00">quality_filter: 7</text>
</g>
<!-- 5&#45;&gt;7 -->
<g id="edge23" class="edge">
<title>5&#45;&gt;7</title>
<path fill="none" stroke="grey" stroke-width="2" d="M185.12,-222.27C201.29,-212.89 222.17,-200.78 240.48,-190.16"/>
<polygon fill="grey" stroke="grey" stroke-width="2" points="242.34,-193.13 249.24,-185.08 238.83,-187.07 242.34,-193.13"/>
</g>
<!-- 8 -->
<g id="node9" class="node">
<title>8</title>
<path fill="none" stroke="#56d8c1" stroke-width="2" d="M463.5,-185C463.5,-185 380.5,-185 380.5,-185 374.5,-185 368.5,-179 368.5,-173 368.5,-173 368.5,-156 368.5,-156 368.5,-150 374.5,-144 380.5,-144 380.5,-144 463.5,-144 463.5,-144 469.5,-144 475.5,-150 475.5,-156 475.5,-156 475.5,-173 475.5,-173 475.5,-179 469.5,-185 463.5,-185"/>
<text text-anchor="middle" x="422" y="-173" font-family="sans" font-size="10.00">BLAST</text>
<text text-anchor="middle" x="422" y="-162" font-family="sans" font-size="10.00">project: barcode04</text>
<text text-anchor="middle" x="422" y="-151" font-family="sans" font-size="10.00">quality_filter: 8</text>
</g>
<!-- 5&#45;&gt;8 -->
<g id="edge24" class="edge">
<title>5&#45;&gt;8</title>
<path fill="none" stroke="grey" stroke-width="2" d="M185.26,-230.51C225.9,-219.35 303.5,-198.04 358.78,-182.86"/>
<polygon fill="grey" stroke="grey" stroke-width="2" points="359.77,-186.22 368.48,-180.2 357.91,-179.47 359.77,-186.22"/>
</g>
<!-- 6&#45;&gt;0 -->
<g id="edge6" class="edge">
<title>6&#45;&gt;0</title>
<path fill="none" stroke="grey" stroke-width="2" d="M143.3,-143.71C130.19,-123.45 115.54,-92.17 133,-72 173.62,-25.07 361.65,-18.8 451.26,-18.54"/>
<polygon fill="grey" stroke="grey" stroke-width="2" points="451.43,-22.04 461.43,-18.53 451.42,-15.04 451.43,-22.04"/>
</g>
<!-- 9 -->
<g id="node10" class="node">
<title>9</title>
<path fill="none" stroke="#56c1d8" stroke-width="2" d="M228,-108C228,-108 154,-108 154,-108 148,-108 142,-102 142,-96 142,-96 142,-84 142,-84 142,-78 148,-72 154,-72 154,-72 228,-72 228,-72 234,-72 240,-78 240,-84 240,-84 240,-96 240,-96 240,-102 234,-108 228,-108"/>
<text text-anchor="middle" x="191" y="-87.5" font-family="sans" font-size="10.00">BLAST_16S_ppm</text>
</g>
<!-- 6&#45;&gt;9 -->
<g id="edge25" class="edge">
<title>6&#45;&gt;9</title>
<path fill="none" stroke="grey" stroke-width="2" d="M167.02,-143.69C170.68,-135.65 174.96,-126.24 178.89,-117.61"/>
<polygon fill="grey" stroke="grey" stroke-width="2" points="182.16,-118.87 183.12,-108.32 175.79,-115.97 182.16,-118.87"/>
</g>
<!-- 7&#45;&gt;0 -->
<g id="edge7" class="edge">
<title>7&#45;&gt;0</title>
<path fill="none" stroke="grey" stroke-width="2" d="M277.71,-144C273.47,-123.68 270.61,-92.08 287,-72 307.5,-46.89 395.08,-31.69 451.06,-24.36"/>
<polygon fill="grey" stroke="grey" stroke-width="2" points="451.64,-27.81 461.12,-23.08 450.76,-20.87 451.64,-27.81"/>
</g>
<!-- 10 -->
<g id="node11" class="node">
<title>10</title>
<path fill="none" stroke="#56c1d8" stroke-width="2" d="M382,-108C382,-108 308,-108 308,-108 302,-108 296,-102 296,-96 296,-96 296,-84 296,-84 296,-78 302,-72 308,-72 308,-72 382,-72 382,-72 388,-72 394,-78 394,-84 394,-84 394,-96 394,-96 394,-102 388,-108 382,-108"/>
<text text-anchor="middle" x="345" y="-87.5" font-family="sans" font-size="10.00">BLAST_16S_ppm</text>
</g>
<!-- 7&#45;&gt;10 -->
<g id="edge26" class="edge">
<title>7&#45;&gt;10</title>
<path fill="none" stroke="grey" stroke-width="2" d="M299.94,-143.69C307.26,-135.13 315.91,-125.02 323.66,-115.95"/>
<polygon fill="grey" stroke="grey" stroke-width="2" points="326.35,-118.19 330.19,-108.32 321.03,-113.64 326.35,-118.19"/>
</g>
<!-- 8&#45;&gt;0 -->
<g id="edge8" class="edge">
<title>8&#45;&gt;0</title>
<path fill="none" stroke="grey" stroke-width="2" d="M422.62,-143.7C424,-124.29 428.24,-94.42 441,-72 447.27,-60.98 456.64,-50.97 466.03,-42.7"/>
<polygon fill="grey" stroke="grey" stroke-width="2" points="468.41,-45.27 473.85,-36.17 463.93,-39.89 468.41,-45.27"/>
</g>
<!-- 11 -->
<g id="node12" class="node">
<title>11</title>
<path fill="none" stroke="#56c1d8" stroke-width="2" d="M536,-108C536,-108 462,-108 462,-108 456,-108 450,-102 450,-96 450,-96 450,-84 450,-84 450,-78 456,-72 462,-72 462,-72 536,-72 536,-72 542,-72 548,-78 548,-84 548,-84 548,-96 548,-96 548,-102 542,-108 536,-108"/>
<text text-anchor="middle" x="499" y="-87.5" font-family="sans" font-size="10.00">BLAST_16S_ppm</text>
</g>
<!-- 8&#45;&gt;11 -->
<g id="edge27" class="edge">
<title>8&#45;&gt;11</title>
<path fill="none" stroke="grey" stroke-width="2" d="M443.04,-143.69C452.39,-134.89 463.47,-124.45 473.3,-115.19"/>
<polygon fill="grey" stroke="grey" stroke-width="2" points="475.98,-117.48 480.86,-108.08 471.18,-112.39 475.98,-117.48"/>
</g>
<!-- 9&#45;&gt;0 -->
<g id="edge9" class="edge">
<title>9&#45;&gt;0</title>
<path fill="none" stroke="grey" stroke-width="2" d="M240.12,-75.49C244.8,-74.28 249.49,-73.1 254,-72 322.1,-55.46 401.48,-38.75 450.99,-28.64"/>
<polygon fill="grey" stroke="grey" stroke-width="2" points="451.99,-32.01 461.09,-26.58 450.59,-25.15 451.99,-32.01"/>
</g>
<!-- 10&#45;&gt;0 -->
<g id="edge10" class="edge">
<title>10&#45;&gt;0</title>
<path fill="none" stroke="grey" stroke-width="2" d="M382.67,-71.88C403.63,-62.35 429.9,-50.41 452.18,-40.28"/>
<polygon fill="grey" stroke="grey" stroke-width="2" points="453.79,-43.39 461.45,-36.07 450.9,-37.02 453.79,-43.39"/>
</g>
<!-- 11&#45;&gt;0 -->
<g id="edge11" class="edge">
<title>11&#45;&gt;0</title>
<path fill="none" stroke="grey" stroke-width="2" d="M499,-71.7C499,-63.98 499,-54.71 499,-46.11"/>
<polygon fill="grey" stroke="grey" stroke-width="2" points="502.5,-46.1 499,-36.1 495.5,-46.1 502.5,-46.1"/>
</g>
<!-- 12&#45;&gt;0 -->
<g id="edge12" class="edge">
<title>12&#45;&gt;0</title>
<path fill="none" stroke="grey" stroke-width="2" d="M697.43,-144C682.44,-123.69 656.62,-92.08 628,-72 603.13,-54.55 571.65,-41.47 546.02,-32.67"/>
<polygon fill="grey" stroke="grey" stroke-width="2" points="547.1,-29.34 536.5,-29.51 544.89,-35.99 547.1,-29.34"/>
</g>
<!-- 15 -->
<g id="node16" class="node">
<title>15</title>
<path fill="none" stroke="#bed856" stroke-width="2" d="M816,-108C816,-108 692,-108 692,-108 686,-108 680,-102 680,-96 680,-96 680,-84 680,-84 680,-78 686,-72 692,-72 692,-72 816,-72 816,-72 822,-72 828,-78 828,-84 828,-84 828,-96 828,-96 828,-102 822,-108 816,-108"/>
<text text-anchor="middle" x="754" y="-87.5" font-family="sans" font-size="10.00">GUPPY_ALIGNER_16S_ppm</text>
</g>
<!-- 12&#45;&gt;15 -->
<g id="edge31" class="edge">
<title>12&#45;&gt;15</title>
<path fill="none" stroke="grey" stroke-width="2" d="M722.75,-143.69C727.62,-135.47 733.34,-125.83 738.55,-117.05"/>
<polygon fill="grey" stroke="grey" stroke-width="2" points="741.64,-118.71 743.73,-108.32 735.62,-115.14 741.64,-118.71"/>
</g>
<!-- 13&#45;&gt;0 -->
<g id="edge13" class="edge">
<title>13&#45;&gt;0</title>
<path fill="none" stroke="grey" stroke-width="2" d="M857.87,-143.65C858.65,-122.74 856.27,-90.35 837,-72 796.16,-33.12 629.95,-22.76 546.82,-20"/>
<polygon fill="grey" stroke="grey" stroke-width="2" points="546.73,-16.49 536.63,-19.69 546.52,-23.49 546.73,-16.49"/>
</g>
<!-- 16 -->
<g id="node17" class="node">
<title>16</title>
<path fill="none" stroke="#bed856" stroke-width="2" d="M1020,-108C1020,-108 896,-108 896,-108 890,-108 884,-102 884,-96 884,-96 884,-84 884,-84 884,-78 890,-72 896,-72 896,-72 1020,-72 1020,-72 1026,-72 1032,-78 1032,-84 1032,-84 1032,-96 1032,-96 1032,-102 1026,-108 1020,-108"/>
<text text-anchor="middle" x="958" y="-87.5" font-family="sans" font-size="10.00">GUPPY_ALIGNER_16S_ppm</text>
</g>
<!-- 13&#45;&gt;16 -->
<g id="edge32" class="edge">
<title>13&#45;&gt;16</title>
<path fill="none" stroke="grey" stroke-width="2" d="M883.6,-143.88C896.48,-134.73 911.89,-123.77 925.34,-114.21"/>
<polygon fill="grey" stroke="grey" stroke-width="2" points="927.73,-116.81 933.85,-108.17 923.67,-111.11 927.73,-116.81"/>
</g>
<!-- 14&#45;&gt;0 -->
<g id="edge14" class="edge">
<title>14&#45;&gt;0</title>
<path fill="none" stroke="grey" stroke-width="2" d="M1062.05,-143.82C1063.05,-122.73 1060.92,-89.89 1041,-72 1004.57,-39.28 672.13,-24.81 546.65,-20.48"/>
<polygon fill="grey" stroke="grey" stroke-width="2" points="546.68,-16.98 536.57,-20.14 546.44,-23.97 546.68,-16.98"/>
</g>
<!-- 17 -->
<g id="node18" class="node">
<title>17</title>
<path fill="none" stroke="#bed856" stroke-width="2" d="M1224,-108C1224,-108 1100,-108 1100,-108 1094,-108 1088,-102 1088,-96 1088,-96 1088,-84 1088,-84 1088,-78 1094,-72 1100,-72 1100,-72 1224,-72 1224,-72 1230,-72 1236,-78 1236,-84 1236,-84 1236,-96 1236,-96 1236,-102 1230,-108 1224,-108"/>
<text text-anchor="middle" x="1162" y="-87.5" font-family="sans" font-size="10.00">GUPPY_ALIGNER_16S_ppm</text>
</g>
<!-- 14&#45;&gt;17 -->
<g id="edge33" class="edge">
<title>14&#45;&gt;17</title>
<path fill="none" stroke="grey" stroke-width="2" d="M1087.6,-143.88C1100.48,-134.73 1115.89,-123.77 1129.34,-114.21"/>
<polygon fill="grey" stroke="grey" stroke-width="2" points="1131.73,-116.81 1137.85,-108.17 1127.67,-111.11 1131.73,-116.81"/>
</g>
<!-- 15&#45;&gt;0 -->
<g id="edge15" class="edge">
<title>15&#45;&gt;0</title>
<path fill="none" stroke="grey" stroke-width="2" d="M691.95,-71.97C647.14,-59.67 587.54,-43.3 546.49,-32.04"/>
<polygon fill="grey" stroke="grey" stroke-width="2" points="547.31,-28.63 536.74,-29.36 545.45,-35.38 547.31,-28.63"/>
</g>
<!-- 16&#45;&gt;0 -->
<g id="edge16" class="edge">
<title>16&#45;&gt;0</title>
<path fill="none" stroke="grey" stroke-width="2" d="M883.63,-74.37C879.02,-73.54 874.45,-72.75 870,-72 754.26,-52.57 617.43,-34.21 546.69,-25.05"/>
<polygon fill="grey" stroke="grey" stroke-width="2" points="547.11,-21.58 536.75,-23.77 546.22,-28.52 547.11,-21.58"/>
</g>
<!-- 17&#45;&gt;0 -->
<g id="edge17" class="edge">
<title>17&#45;&gt;0</title>
<path fill="none" stroke="grey" stroke-width="2" d="M1087.67,-74.1C1083.05,-73.35 1078.47,-72.64 1074,-72 879.61,-44.33 646.09,-27.98 547.1,-21.82"/>
<polygon fill="grey" stroke="grey" stroke-width="2" points="547.02,-18.31 536.83,-21.19 546.59,-25.3 547.02,-18.31"/>
</g>
</g>
</svg>
