<?xml version="1.0" encoding="UTF-8" standalone="no"?>
<!DOCTYPE svg PUBLIC "-//W3C//DTD SVG 1.1//EN"
 "http://www.w3.org/Graphics/SVG/1.1/DTD/svg11.dtd">
<!-- Generated by graphviz version 2.50.0 (20211209.0339)
 -->
<!-- Title: snakemake_dag Pages: 1 -->
<svg width="690pt" height="409pt"
 viewBox="0.00 0.00 689.50 409.00" xmlns="http://www.w3.org/2000/svg" xmlns:xlink="http://www.w3.org/1999/xlink">
<g id="graph0" class="graph" transform="scale(1 1) rotate(0) translate(4 405)">
<title>snakemake_dag</title>
<polygon fill="white" stroke="transparent" points="-4,4 -4,-405 685.5,-405 685.5,4 -4,4"/>
<!-- 0 -->
<g id="node1" class="node">
<title>0</title>
<path fill="none" stroke="#d89556" stroke-width="2" d="M287.5,-36C287.5,-36 236.5,-36 236.5,-36 230.5,-36 224.5,-30 224.5,-24 224.5,-24 224.5,-12 224.5,-12 224.5,-6 230.5,0 236.5,0 236.5,0 287.5,0 287.5,0 293.5,0 299.5,-6 299.5,-12 299.5,-12 299.5,-24 299.5,-24 299.5,-30 293.5,-36 287.5,-36"/>
<text text-anchor="middle" x="262" y="-15.5" font-family="sans" font-size="10.00">cONTsensus</text>
</g>
<!-- 1 -->
<g id="node2" class="node">
<title>1</title>
<path fill="none" stroke="#56d8d8" stroke-width="2" d="M121,-401C121,-401 91,-401 91,-401 85,-401 79,-395 79,-389 79,-389 79,-377 79,-377 79,-371 85,-365 91,-365 91,-365 121,-365 121,-365 127,-365 133,-371 133,-377 133,-377 133,-389 133,-389 133,-395 127,-401 121,-401"/>
<text text-anchor="middle" x="106" y="-380.5" font-family="sans" font-size="10.00">Init</text>
</g>
<!-- 1&#45;&gt;0 -->
<g id="edge1" class="edge">
<title>1&#45;&gt;0</title>
<path fill="none" stroke="grey" stroke-width="2" d="M81.42,-364.93C50.1,-340.96 0,-294.14 0,-240 0,-240 0,-240 0,-163.5 0,-66.76 138.67,-34.3 214.24,-23.79"/>
<polygon fill="grey" stroke="grey" stroke-width="2" points="215,-27.22 224.46,-22.45 214.09,-20.28 215,-27.22"/>
</g>
<!-- 2 -->
<g id="node3" class="node">
<title>2</title>
<path fill="none" stroke="#d6d856" stroke-width="2" d="M125,-329C125,-329 87,-329 87,-329 81,-329 75,-323 75,-317 75,-317 75,-305 75,-305 75,-299 81,-293 87,-293 87,-293 125,-293 125,-293 131,-293 137,-299 137,-305 137,-305 137,-317 137,-317 137,-323 131,-329 125,-329"/>
<text text-anchor="middle" x="106" y="-308.5" font-family="sans" font-size="10.00">Porechop</text>
</g>
<!-- 1&#45;&gt;2 -->
<g id="edge12" class="edge">
<title>1&#45;&gt;2</title>
<path fill="none" stroke="grey" stroke-width="2" d="M106,-364.7C106,-356.98 106,-347.71 106,-339.11"/>
<polygon fill="grey" stroke="grey" stroke-width="2" points="109.5,-339.1 106,-329.1 102.5,-339.1 109.5,-339.1"/>
</g>
<!-- 3 -->
<g id="node4" class="node">
<title>3</title>
<path fill="none" stroke="#569ad8" stroke-width="2" d="M594.5,-182.5C594.5,-182.5 521.5,-182.5 521.5,-182.5 515.5,-182.5 509.5,-176.5 509.5,-170.5 509.5,-170.5 509.5,-158.5 509.5,-158.5 509.5,-152.5 515.5,-146.5 521.5,-146.5 521.5,-146.5 594.5,-146.5 594.5,-146.5 600.5,-146.5 606.5,-152.5 606.5,-158.5 606.5,-158.5 606.5,-170.5 606.5,-170.5 606.5,-176.5 600.5,-182.5 594.5,-182.5"/>
<text text-anchor="middle" x="558" y="-162" font-family="sans" font-size="10.00">Guppy_Barcoder</text>
</g>
<!-- 1&#45;&gt;3 -->
<g id="edge13" class="edge">
<title>1&#45;&gt;3</title>
<path fill="none" stroke="grey" stroke-width="2" d="M133.26,-368.94C208.64,-332.84 420.45,-231.39 513.36,-186.88"/>
<polygon fill="grey" stroke="grey" stroke-width="2" points="515,-189.98 522.51,-182.5 511.97,-183.66 515,-189.98"/>
</g>
<!-- 2&#45;&gt;0 -->
<g id="edge2" class="edge">
<title>2&#45;&gt;0</title>
<path fill="none" stroke="grey" stroke-width="2" d="M97.77,-292.81C78.52,-249.84 36.19,-136.53 91,-72 121.29,-36.34 175.09,-24.29 214.28,-20.42"/>
<polygon fill="grey" stroke="grey" stroke-width="2" points="214.73,-23.89 224.4,-19.56 214.15,-16.91 214.73,-23.89"/>
</g>
<!-- 5 -->
<g id="node6" class="node">
<title>5</title>
<path fill="none" stroke="#56d89a" stroke-width="2" d="M173,-257C173,-257 143,-257 143,-257 137,-257 131,-251 131,-245 131,-245 131,-233 131,-233 131,-227 137,-221 143,-221 143,-221 173,-221 173,-221 179,-221 185,-227 185,-233 185,-233 185,-245 185,-245 185,-251 179,-257 173,-257"/>
<text text-anchor="middle" x="158" y="-236.5" font-family="sans" font-size="10.00">Filtlong</text>
</g>
<!-- 2&#45;&gt;5 -->
<g id="edge15" class="edge">
<title>2&#45;&gt;5</title>
<path fill="none" stroke="grey" stroke-width="2" d="M118.85,-292.7C125.03,-284.39 132.54,-274.28 139.32,-265.14"/>
<polygon fill="grey" stroke="grey" stroke-width="2" points="142.14,-267.22 145.29,-257.1 136.52,-263.04 142.14,-267.22"/>
</g>
<!-- 3&#45;&gt;0 -->
<g id="edge3" class="edge">
<title>3&#45;&gt;0</title>
<path fill="none" stroke="grey" stroke-width="2" d="M559.43,-146.36C560.15,-125.71 557.91,-91.41 538,-72 506.22,-41.02 380.24,-27.31 309.99,-21.96"/>
<polygon fill="grey" stroke="grey" stroke-width="2" points="309.86,-18.45 299.63,-21.21 309.34,-25.43 309.86,-18.45"/>
</g>
<!-- 4 -->
<g id="node5" class="node">
<title>4</title>
<path fill="none" stroke="#97d856" stroke-width="2" d="M669.5,-108C669.5,-108 598.5,-108 598.5,-108 592.5,-108 586.5,-102 586.5,-96 586.5,-96 586.5,-84 586.5,-84 586.5,-78 592.5,-72 598.5,-72 598.5,-72 669.5,-72 669.5,-72 675.5,-72 681.5,-78 681.5,-84 681.5,-84 681.5,-96 681.5,-96 681.5,-102 675.5,-108 669.5,-108"/>
<text text-anchor="middle" x="634" y="-87.5" font-family="sans" font-size="10.00">ProwlerTrimmer</text>
</g>
<!-- 3&#45;&gt;4 -->
<g id="edge14" class="edge">
<title>3&#45;&gt;4</title>
<path fill="none" stroke="grey" stroke-width="2" d="M576.01,-146.32C585.76,-137.02 597.96,-125.38 608.66,-115.18"/>
<polygon fill="grey" stroke="grey" stroke-width="2" points="611.3,-117.49 616.12,-108.06 606.47,-112.43 611.3,-117.49"/>
</g>
<!-- 4&#45;&gt;0 -->
<g id="edge4" class="edge">
<title>4&#45;&gt;0</title>
<path fill="none" stroke="grey" stroke-width="2" d="M586.39,-75.44C581.55,-74.21 576.69,-73.04 572,-72 480.04,-51.58 371.24,-34.62 310.06,-25.72"/>
<polygon fill="grey" stroke="grey" stroke-width="2" points="310.33,-22.22 299.93,-24.26 309.33,-29.15 310.33,-22.22"/>
</g>
<!-- 5&#45;&gt;0 -->
<g id="edge5" class="edge">
<title>5&#45;&gt;0</title>
<path fill="none" stroke="grey" stroke-width="2" d="M130.99,-223.07C117.49,-214 102.48,-201.07 95,-185 73.16,-138.09 86.29,-108.47 123,-72 147.69,-47.47 184.91,-34.08 214.62,-26.9"/>
<polygon fill="grey" stroke="grey" stroke-width="2" points="215.39,-30.31 224.38,-24.69 213.85,-23.48 215.39,-30.31"/>
</g>
<!-- 6 -->
<g id="node7" class="node">
<title>6</title>
<path fill="none" stroke="#d85656" stroke-width="2" d="M199.5,-185C199.5,-185 116.5,-185 116.5,-185 110.5,-185 104.5,-179 104.5,-173 104.5,-173 104.5,-156 104.5,-156 104.5,-150 110.5,-144 116.5,-144 116.5,-144 199.5,-144 199.5,-144 205.5,-144 211.5,-150 211.5,-156 211.5,-156 211.5,-173 211.5,-173 211.5,-179 205.5,-185 199.5,-185"/>
<text text-anchor="middle" x="158" y="-173" font-family="sans" font-size="10.00">BLAST_NCBI</text>
<text text-anchor="middle" x="158" y="-162" font-family="sans" font-size="10.00">project: barcode04</text>
<text text-anchor="middle" x="158" y="-151" font-family="sans" font-size="10.00">quality_filter: 6</text>
</g>
<!-- 5&#45;&gt;6 -->
<g id="edge16" class="edge">
<title>5&#45;&gt;6</title>
<path fill="none" stroke="grey" stroke-width="2" d="M158,-220.82C158,-213.2 158,-204 158,-195.32"/>
<polygon fill="grey" stroke="grey" stroke-width="2" points="161.5,-195.12 158,-185.12 154.5,-195.12 161.5,-195.12"/>
</g>
<!-- 7 -->
<g id="node8" class="node">
<title>7</title>
<path fill="none" stroke="#d85656" stroke-width="2" d="M324.5,-185C324.5,-185 241.5,-185 241.5,-185 235.5,-185 229.5,-179 229.5,-173 229.5,-173 229.5,-156 229.5,-156 229.5,-150 235.5,-144 241.5,-144 241.5,-144 324.5,-144 324.5,-144 330.5,-144 336.5,-150 336.5,-156 336.5,-156 336.5,-173 336.5,-173 336.5,-179 330.5,-185 324.5,-185"/>
<text text-anchor="middle" x="283" y="-173" font-family="sans" font-size="10.00">BLAST_NCBI</text>
<text text-anchor="middle" x="283" y="-162" font-family="sans" font-size="10.00">project: barcode04</text>
<text text-anchor="middle" x="283" y="-151" font-family="sans" font-size="10.00">quality_filter: 7</text>
</g>
<!-- 5&#45;&gt;7 -->
<g id="edge17" class="edge">
<title>5&#45;&gt;7</title>
<path fill="none" stroke="grey" stroke-width="2" d="M185.12,-222.27C201.29,-212.89 222.17,-200.78 240.48,-190.16"/>
<polygon fill="grey" stroke="grey" stroke-width="2" points="242.34,-193.13 249.24,-185.08 238.83,-187.07 242.34,-193.13"/>
</g>
<!-- 8 -->
<g id="node9" class="node">
<title>8</title>
<path fill="none" stroke="#d85656" stroke-width="2" d="M451.5,-185C451.5,-185 368.5,-185 368.5,-185 362.5,-185 356.5,-179 356.5,-173 356.5,-173 356.5,-156 356.5,-156 356.5,-150 362.5,-144 368.5,-144 368.5,-144 451.5,-144 451.5,-144 457.5,-144 463.5,-150 463.5,-156 463.5,-156 463.5,-173 463.5,-173 463.5,-179 457.5,-185 451.5,-185"/>
<text text-anchor="middle" x="410" y="-173" font-family="sans" font-size="10.00">BLAST_NCBI</text>
<text text-anchor="middle" x="410" y="-162" font-family="sans" font-size="10.00">project: barcode04</text>
<text text-anchor="middle" x="410" y="-151" font-family="sans" font-size="10.00">quality_filter: 8</text>
</g>
<!-- 5&#45;&gt;8 -->
<g id="edge18" class="edge">
<title>5&#45;&gt;8</title>
<path fill="none" stroke="grey" stroke-width="2" d="M185.29,-230.41C221.74,-220.23 288.31,-201.54 345,-185 345.58,-184.83 346.17,-184.66 346.76,-184.49"/>
<polygon fill="grey" stroke="grey" stroke-width="2" points="347.85,-187.81 356.46,-181.63 345.88,-181.1 347.85,-187.81"/>
</g>
<!-- 6&#45;&gt;0 -->
<g id="edge6" class="edge">
<title>6&#45;&gt;0</title>
<path fill="none" stroke="grey" stroke-width="2" d="M143.9,-143.78C131.76,-124.16 118.33,-93.89 133,-72 151.09,-45.01 185.65,-31.76 214.46,-25.25"/>
<polygon fill="grey" stroke="grey" stroke-width="2" points="215.27,-28.65 224.37,-23.22 213.87,-21.8 215.27,-28.65"/>
</g>
<!-- 9 -->
<g id="node10" class="node">
<title>9</title>
<path fill="none" stroke="#59d856" stroke-width="2" d="M221.5,-108C221.5,-108 154.5,-108 154.5,-108 148.5,-108 142.5,-102 142.5,-96 142.5,-96 142.5,-84 142.5,-84 142.5,-78 148.5,-72 154.5,-72 154.5,-72 221.5,-72 221.5,-72 227.5,-72 233.5,-78 233.5,-84 233.5,-84 233.5,-96 233.5,-96 233.5,-102 227.5,-108 221.5,-108"/>
<text text-anchor="middle" x="188" y="-87.5" font-family="sans" font-size="10.00">NCBI_16S_ppm</text>
</g>
<!-- 6&#45;&gt;9 -->
<g id="edge19" class="edge">
<title>6&#45;&gt;9</title>
<path fill="none" stroke="grey" stroke-width="2" d="M166.2,-143.69C169.53,-135.65 173.42,-126.24 176.99,-117.61"/>
<polygon fill="grey" stroke="grey" stroke-width="2" points="180.24,-118.9 180.83,-108.32 173.78,-116.22 180.24,-118.9"/>
</g>
<!-- 7&#45;&gt;0 -->
<g id="edge7" class="edge">
<title>7&#45;&gt;0</title>
<path fill="none" stroke="grey" stroke-width="2" d="M280.12,-143.71C276.46,-118.49 270.1,-74.76 265.98,-46.36"/>
<polygon fill="grey" stroke="grey" stroke-width="2" points="269.42,-45.69 264.51,-36.3 262.49,-46.69 269.42,-45.69"/>
</g>
<!-- 10 -->
<g id="node11" class="node">
<title>10</title>
<path fill="none" stroke="#59d856" stroke-width="2" d="M369.5,-108C369.5,-108 302.5,-108 302.5,-108 296.5,-108 290.5,-102 290.5,-96 290.5,-96 290.5,-84 290.5,-84 290.5,-78 296.5,-72 302.5,-72 302.5,-72 369.5,-72 369.5,-72 375.5,-72 381.5,-78 381.5,-84 381.5,-84 381.5,-96 381.5,-96 381.5,-102 375.5,-108 369.5,-108"/>
<text text-anchor="middle" x="336" y="-87.5" font-family="sans" font-size="10.00">NCBI_16S_ppm</text>
</g>
<!-- 7&#45;&gt;10 -->
<g id="edge20" class="edge">
<title>7&#45;&gt;10</title>
<path fill="none" stroke="grey" stroke-width="2" d="M297.48,-143.69C303.61,-135.3 310.84,-125.42 317.36,-116.5"/>
<polygon fill="grey" stroke="grey" stroke-width="2" points="320.26,-118.46 323.34,-108.32 314.61,-114.33 320.26,-118.46"/>
</g>
<!-- 8&#45;&gt;0 -->
<g id="edge8" class="edge">
<title>8&#45;&gt;0</title>
<path fill="none" stroke="grey" stroke-width="2" d="M410.73,-143.72C410.42,-123.48 406.9,-92.2 390,-72 369.79,-47.85 336.78,-34.54 309.34,-27.3"/>
<polygon fill="grey" stroke="grey" stroke-width="2" points="310.06,-23.87 299.52,-24.89 308.4,-30.67 310.06,-23.87"/>
</g>
<!-- 11 -->
<g id="node12" class="node">
<title>11</title>
<path fill="none" stroke="#59d856" stroke-width="2" d="M517.5,-108C517.5,-108 450.5,-108 450.5,-108 444.5,-108 438.5,-102 438.5,-96 438.5,-96 438.5,-84 438.5,-84 438.5,-78 444.5,-72 450.5,-72 450.5,-72 517.5,-72 517.5,-72 523.5,-72 529.5,-78 529.5,-84 529.5,-84 529.5,-96 529.5,-96 529.5,-102 523.5,-108 517.5,-108"/>
<text text-anchor="middle" x="484" y="-87.5" font-family="sans" font-size="10.00">NCBI_16S_ppm</text>
</g>
<!-- 8&#45;&gt;11 -->
<g id="edge21" class="edge">
<title>8&#45;&gt;11</title>
<path fill="none" stroke="grey" stroke-width="2" d="M430.22,-143.69C439.14,-134.96 449.7,-124.61 459.09,-115.4"/>
<polygon fill="grey" stroke="grey" stroke-width="2" points="461.63,-117.82 466.32,-108.32 456.73,-112.82 461.63,-117.82"/>
</g>
<!-- 9&#45;&gt;0 -->
<g id="edge9" class="edge">
<title>9&#45;&gt;0</title>
<path fill="none" stroke="grey" stroke-width="2" d="M206.29,-71.7C215.43,-63.05 226.64,-52.45 236.6,-43.03"/>
<polygon fill="grey" stroke="grey" stroke-width="2" points="239.06,-45.52 243.92,-36.1 234.25,-40.43 239.06,-45.52"/>
</g>
<!-- 10&#45;&gt;0 -->
<g id="edge10" class="edge">
<title>10&#45;&gt;0</title>
<path fill="none" stroke="grey" stroke-width="2" d="M317.71,-71.7C308.57,-63.05 297.36,-52.45 287.4,-43.03"/>
<polygon fill="grey" stroke="grey" stroke-width="2" points="289.75,-40.43 280.08,-36.1 284.94,-45.52 289.75,-40.43"/>
</g>
<!-- 11&#45;&gt;0 -->
<g id="edge11" class="edge">
<title>11&#45;&gt;0</title>
<path fill="none" stroke="grey" stroke-width="2" d="M438.27,-74.58C400.64,-62.71 347.47,-45.95 309.39,-33.94"/>
<polygon fill="grey" stroke="grey" stroke-width="2" points="310.16,-30.51 299.57,-30.84 308.05,-37.19 310.16,-30.51"/>
</g>
</g>
</svg>
