<?xml version="1.0" encoding="UTF-8" standalone="no"?>
<!DOCTYPE svg PUBLIC "-//W3C//DTD SVG 1.1//EN"
 "http://www.w3.org/Graphics/SVG/1.1/DTD/svg11.dtd">
<!-- Generated by graphviz version 2.50.0 (20211209.0339)
 -->
<!-- Title: snakemake_dag Pages: 1 -->
<svg width="264pt" height="260pt"
 viewBox="0.00 0.00 263.83 260.00" xmlns="http://www.w3.org/2000/svg" xmlns:xlink="http://www.w3.org/1999/xlink">
<g id="graph0" class="graph" transform="scale(1 1) rotate(0) translate(4 256)">
<title>snakemake_dag</title>
<polygon fill="white" stroke="transparent" points="-4,4 -4,-256 259.83,-256 259.83,4 -4,4"/>
<!-- 0 -->
<g id="node1" class="node">
<title>0</title>
<path fill="none" stroke="#d8ac56" stroke-width="2" d="M102.83,-36C102.83,-36 51.83,-36 51.83,-36 45.83,-36 39.83,-30 39.83,-24 39.83,-24 39.83,-12 39.83,-12 39.83,-6 45.83,0 51.83,0 51.83,0 102.83,0 102.83,0 108.83,0 114.83,-6 114.83,-12 114.83,-12 114.83,-24 114.83,-24 114.83,-30 108.83,-36 102.83,-36"/>
<text text-anchor="middle" x="77.33" y="-15.5" font-family="sans" font-size="10.00">cONTsensus</text>
</g>
<!-- 1 -->
<g id="node2" class="node">
<title>1</title>
<path fill="none" stroke="#59d856" stroke-width="2" d="M58.33,-252C58.33,-252 28.33,-252 28.33,-252 22.33,-252 16.33,-246 16.33,-240 16.33,-240 16.33,-228 16.33,-228 16.33,-222 22.33,-216 28.33,-216 28.33,-216 58.33,-216 58.33,-216 64.33,-216 70.33,-222 70.33,-228 70.33,-228 70.33,-240 70.33,-240 70.33,-246 64.33,-252 58.33,-252"/>
<text text-anchor="middle" x="43.33" y="-231.5" font-family="sans" font-size="10.00">Init</text>
</g>
<!-- 1&#45;&gt;0 -->
<g id="edge1" class="edge">
<title>1&#45;&gt;0</title>
<path fill="none" stroke="grey" stroke-width="2" d="M25.59,-215.6C17.09,-206 7.79,-193.34 3.33,-180 -1.76,-164.83 0.19,-159.69 3.33,-144 10.12,-110.01 15.39,-101.67 33.33,-72 39.23,-62.23 46.86,-52.37 54.09,-43.86"/>
<polygon fill="grey" stroke="grey" stroke-width="2" points="56.89,-45.98 60.84,-36.15 51.62,-41.36 56.89,-45.98"/>
</g>
<!-- 2 -->
<g id="node3" class="node">
<title>2</title>
<path fill="none" stroke="#afd856" stroke-width="2" d="M62.33,-180C62.33,-180 24.33,-180 24.33,-180 18.33,-180 12.33,-174 12.33,-168 12.33,-168 12.33,-156 12.33,-156 12.33,-150 18.33,-144 24.33,-144 24.33,-144 62.33,-144 62.33,-144 68.33,-144 74.33,-150 74.33,-156 74.33,-156 74.33,-168 74.33,-168 74.33,-174 68.33,-180 62.33,-180"/>
<text text-anchor="middle" x="43.33" y="-159.5" font-family="sans" font-size="10.00">Porechop</text>
</g>
<!-- 1&#45;&gt;2 -->
<g id="edge6" class="edge">
<title>1&#45;&gt;2</title>
<path fill="none" stroke="grey" stroke-width="2" d="M43.33,-215.7C43.33,-207.98 43.33,-198.71 43.33,-190.11"/>
<polygon fill="grey" stroke="grey" stroke-width="2" points="46.83,-190.1 43.33,-180.1 39.83,-190.1 46.83,-190.1"/>
</g>
<!-- 3 -->
<g id="node4" class="node">
<title>3</title>
<path fill="none" stroke="#56d8a9" stroke-width="2" d="M177.83,-180C177.83,-180 104.83,-180 104.83,-180 98.83,-180 92.83,-174 92.83,-168 92.83,-168 92.83,-156 92.83,-156 92.83,-150 98.83,-144 104.83,-144 104.83,-144 177.83,-144 177.83,-144 183.83,-144 189.83,-150 189.83,-156 189.83,-156 189.83,-168 189.83,-168 189.83,-174 183.83,-180 177.83,-180"/>
<text text-anchor="middle" x="141.33" y="-159.5" font-family="sans" font-size="10.00">Guppy_Barcoder</text>
</g>
<!-- 1&#45;&gt;3 -->
<g id="edge7" class="edge">
<title>1&#45;&gt;3</title>
<path fill="none" stroke="grey" stroke-width="2" d="M67.3,-215.88C79.88,-206.89 95.46,-195.76 109.08,-186.03"/>
<polygon fill="grey" stroke="grey" stroke-width="2" points="111.16,-188.85 117.26,-180.19 107.09,-183.15 111.16,-188.85"/>
</g>
<!-- 2&#45;&gt;0 -->
<g id="edge2" class="edge">
<title>2&#45;&gt;0</title>
<path fill="none" stroke="grey" stroke-width="2" d="M39.79,-143.83C36.76,-125.58 33.92,-96.08 41.33,-72 44.33,-62.22 49.83,-52.62 55.64,-44.33"/>
<polygon fill="grey" stroke="grey" stroke-width="2" points="58.52,-46.33 61.72,-36.23 52.92,-42.13 58.52,-46.33"/>
</g>
<!-- 5 -->
<g id="node6" class="node">
<title>5</title>
<path fill="none" stroke="#d85656" stroke-width="2" d="M92.33,-108C92.33,-108 62.33,-108 62.33,-108 56.33,-108 50.33,-102 50.33,-96 50.33,-96 50.33,-84 50.33,-84 50.33,-78 56.33,-72 62.33,-72 62.33,-72 92.33,-72 92.33,-72 98.33,-72 104.33,-78 104.33,-84 104.33,-84 104.33,-96 104.33,-96 104.33,-102 98.33,-108 92.33,-108"/>
<text text-anchor="middle" x="77.33" y="-87.5" font-family="sans" font-size="10.00">Filtlong</text>
</g>
<!-- 2&#45;&gt;5 -->
<g id="edge9" class="edge">
<title>2&#45;&gt;5</title>
<path fill="none" stroke="grey" stroke-width="2" d="M51.73,-143.7C55.6,-135.73 60.28,-126.1 64.57,-117.26"/>
<polygon fill="grey" stroke="grey" stroke-width="2" points="67.8,-118.63 69.02,-108.1 61.5,-115.57 67.8,-118.63"/>
</g>
<!-- 3&#45;&gt;0 -->
<g id="edge3" class="edge">
<title>3&#45;&gt;0</title>
<path fill="none" stroke="grey" stroke-width="2" d="M137.48,-143.71C133.03,-125.35 124.83,-95.77 113.33,-72 108.79,-62.64 102.77,-53.04 96.95,-44.63"/>
<polygon fill="grey" stroke="grey" stroke-width="2" points="99.69,-42.45 91.02,-36.36 94,-46.53 99.69,-42.45"/>
</g>
<!-- 4 -->
<g id="node5" class="node">
<title>4</title>
<path fill="none" stroke="#56a9d8" stroke-width="2" d="M243.83,-108C243.83,-108 172.83,-108 172.83,-108 166.83,-108 160.83,-102 160.83,-96 160.83,-96 160.83,-84 160.83,-84 160.83,-78 166.83,-72 172.83,-72 172.83,-72 243.83,-72 243.83,-72 249.83,-72 255.83,-78 255.83,-84 255.83,-84 255.83,-96 255.83,-96 255.83,-102 249.83,-108 243.83,-108"/>
<text text-anchor="middle" x="208.33" y="-87.5" font-family="sans" font-size="10.00">ProwlerTrimmer</text>
</g>
<!-- 3&#45;&gt;4 -->
<g id="edge8" class="edge">
<title>3&#45;&gt;4</title>
<path fill="none" stroke="grey" stroke-width="2" d="M157.89,-143.7C166,-135.22 175.91,-124.86 184.8,-115.58"/>
<polygon fill="grey" stroke="grey" stroke-width="2" points="187.57,-117.75 191.95,-108.1 182.51,-112.91 187.57,-117.75"/>
</g>
<!-- 4&#45;&gt;0 -->
<g id="edge4" class="edge">
<title>4&#45;&gt;0</title>
<path fill="none" stroke="grey" stroke-width="2" d="M176.28,-71.88C158.83,-62.55 137.06,-50.92 118.38,-40.94"/>
<polygon fill="grey" stroke="grey" stroke-width="2" points="119.96,-37.82 109.5,-36.19 116.67,-43.99 119.96,-37.82"/>
</g>
<!-- 5&#45;&gt;0 -->
<g id="edge5" class="edge">
<title>5&#45;&gt;0</title>
<path fill="none" stroke="grey" stroke-width="2" d="M77.33,-71.7C77.33,-63.98 77.33,-54.71 77.33,-46.11"/>
<polygon fill="grey" stroke="grey" stroke-width="2" points="80.83,-46.1 77.33,-36.1 73.83,-46.1 80.83,-46.1"/>
</g>
</g>
</svg>
