<?xml version="1.0" encoding="UTF-8" standalone="no"?>
<!DOCTYPE svg PUBLIC "-//W3C//DTD SVG 1.1//EN"
 "http://www.w3.org/Graphics/SVG/1.1/DTD/svg11.dtd">
<!-- Generated by graphviz version 2.50.0 (20211209.0339)
 -->
<!-- Title: snakemake_dag Pages: 1 -->
<svg width="1233pt" height="481pt"
 viewBox="0.00 0.00 1232.75 481.00" xmlns="http://www.w3.org/2000/svg" xmlns:xlink="http://www.w3.org/1999/xlink">
<g id="graph0" class="graph" transform="scale(1 1) rotate(0) translate(4 477)">
<title>snakemake_dag</title>
<polygon fill="white" stroke="transparent" points="-4,4 -4,-477 1228.75,-477 1228.75,4 -4,4"/>
<!-- 0 -->
<g id="node1" class="node">
<title>0</title>
<path fill="none" stroke="#56d86b" stroke-width="2" stroke-dasharray="5,2" d="M546.5,-36C546.5,-36 495.5,-36 495.5,-36 489.5,-36 483.5,-30 483.5,-24 483.5,-24 483.5,-12 483.5,-12 483.5,-6 489.5,0 495.5,0 495.5,0 546.5,0 546.5,0 552.5,0 558.5,-6 558.5,-12 558.5,-12 558.5,-24 558.5,-24 558.5,-30 552.5,-36 546.5,-36"/>
<text text-anchor="middle" x="521" y="-15.5" font-family="sans" font-size="10.00">cONTsensus</text>
</g>
<!-- 1 -->
<g id="node2" class="node">
<title>1</title>
<path fill="none" stroke="#d8b456" stroke-width="2" stroke-dasharray="5,2" d="M123,-473C123,-473 93,-473 93,-473 87,-473 81,-467 81,-461 81,-461 81,-449 81,-449 81,-443 87,-437 93,-437 93,-437 123,-437 123,-437 129,-437 135,-443 135,-449 135,-449 135,-461 135,-461 135,-467 129,-473 123,-473"/>
<text text-anchor="middle" x="108" y="-452.5" font-family="sans" font-size="10.00">Init</text>
</g>
<!-- 1&#45;&gt;0 -->
<g id="edge1" class="edge">
<title>1&#45;&gt;0</title>
<path fill="none" stroke="grey" stroke-width="2" d="M82.68,-436.83C50.76,-412.92 0,-366.36 0,-312 0,-312 0,-312 0,-161 0,-114.73 15.03,-96.94 54,-72 122.61,-28.1 368.23,-20.44 473.04,-19.19"/>
<polygon fill="grey" stroke="grey" stroke-width="2" points="473.37,-22.69 483.33,-19.09 473.3,-15.69 473.37,-22.69"/>
</g>
<!-- 2 -->
<g id="node3" class="node">
<title>2</title>
<path fill="none" stroke="#9fd856" stroke-width="2" stroke-dasharray="5,2" d="M127,-401C127,-401 89,-401 89,-401 83,-401 77,-395 77,-389 77,-389 77,-377 77,-377 77,-371 83,-365 89,-365 89,-365 127,-365 127,-365 133,-365 139,-371 139,-377 139,-377 139,-389 139,-389 139,-395 133,-401 127,-401"/>
<text text-anchor="middle" x="108" y="-380.5" font-family="sans" font-size="10.00">Porechop</text>
</g>
<!-- 1&#45;&gt;2 -->
<g id="edge21" class="edge">
<title>1&#45;&gt;2</title>
<path fill="none" stroke="grey" stroke-width="2" d="M108,-436.7C108,-428.98 108,-419.71 108,-411.11"/>
<polygon fill="grey" stroke="grey" stroke-width="2" points="111.5,-411.1 108,-401.1 104.5,-411.1 111.5,-411.1"/>
</g>
<!-- 3 -->
<g id="node4" class="node">
<title>3</title>
<path fill="none" stroke="#d88556" stroke-width="2" stroke-dasharray="5,2" d="M526.5,-401C526.5,-401 453.5,-401 453.5,-401 447.5,-401 441.5,-395 441.5,-389 441.5,-389 441.5,-377 441.5,-377 441.5,-371 447.5,-365 453.5,-365 453.5,-365 526.5,-365 526.5,-365 532.5,-365 538.5,-371 538.5,-377 538.5,-377 538.5,-389 538.5,-389 538.5,-395 532.5,-401 526.5,-401"/>
<text text-anchor="middle" x="490" y="-380.5" font-family="sans" font-size="10.00">Guppy_Barcoder</text>
</g>
<!-- 1&#45;&gt;3 -->
<g id="edge22" class="edge">
<title>1&#45;&gt;3</title>
<path fill="none" stroke="grey" stroke-width="2" d="M135.17,-449.02C196.67,-437.75 347.72,-410.07 431.55,-394.71"/>
<polygon fill="grey" stroke="grey" stroke-width="2" points="432.23,-398.14 441.43,-392.9 430.97,-391.26 432.23,-398.14"/>
</g>
<!-- 2&#45;&gt;0 -->
<g id="edge2" class="edge">
<title>2&#45;&gt;0</title>
<path fill="none" stroke="grey" stroke-width="2" d="M93.15,-364.62C72.61,-338.73 38,-287.68 38,-237.5 38,-237.5 38,-237.5 38,-161 38,-108.98 68.27,-96.79 114,-72 175.13,-38.86 379.64,-25.44 473.35,-20.94"/>
<polygon fill="grey" stroke="grey" stroke-width="2" points="473.59,-24.43 483.41,-20.47 473.26,-17.44 473.59,-24.43"/>
</g>
<!-- 5 -->
<g id="node6" class="node">
<title>5</title>
<path fill="none" stroke="#56b1d8" stroke-width="2" stroke-dasharray="5,2" d="M173,-329C173,-329 143,-329 143,-329 137,-329 131,-323 131,-317 131,-317 131,-305 131,-305 131,-299 137,-293 143,-293 143,-293 173,-293 173,-293 179,-293 185,-299 185,-305 185,-305 185,-317 185,-317 185,-323 179,-329 173,-329"/>
<text text-anchor="middle" x="158" y="-308.5" font-family="sans" font-size="10.00">Filtlong</text>
</g>
<!-- 2&#45;&gt;5 -->
<g id="edge24" class="edge">
<title>2&#45;&gt;5</title>
<path fill="none" stroke="grey" stroke-width="2" d="M120.36,-364.7C126.23,-356.47 133.37,-346.48 139.84,-337.42"/>
<polygon fill="grey" stroke="grey" stroke-width="2" points="142.82,-339.28 145.78,-329.1 137.12,-335.21 142.82,-339.28"/>
</g>
<!-- 3&#45;&gt;0 -->
<g id="edge3" class="edge">
<title>3&#45;&gt;0</title>
<path fill="none" stroke="grey" stroke-width="2" d="M491.27,-364.97C494.19,-325.89 501.72,-226.79 509,-144 511.96,-110.37 515.73,-71.68 518.25,-46.36"/>
<polygon fill="grey" stroke="grey" stroke-width="2" points="521.73,-46.68 519.24,-36.38 514.77,-45.99 521.73,-46.68"/>
</g>
<!-- 4 -->
<g id="node5" class="node">
<title>4</title>
<path fill="none" stroke="#ced856" stroke-width="2" stroke-dasharray="5,2" d="M998.5,-329C998.5,-329 927.5,-329 927.5,-329 921.5,-329 915.5,-323 915.5,-317 915.5,-317 915.5,-305 915.5,-305 915.5,-299 921.5,-293 927.5,-293 927.5,-293 998.5,-293 998.5,-293 1004.5,-293 1010.5,-299 1010.5,-305 1010.5,-305 1010.5,-317 1010.5,-317 1010.5,-323 1004.5,-329 998.5,-329"/>
<text text-anchor="middle" x="963" y="-308.5" font-family="sans" font-size="10.00">ProwlerTrimmer</text>
</g>
<!-- 3&#45;&gt;4 -->
<g id="edge23" class="edge">
<title>3&#45;&gt;4</title>
<path fill="none" stroke="grey" stroke-width="2" d="M538.84,-374.77C626.86,-361.75 811.67,-334.4 905.59,-320.5"/>
<polygon fill="grey" stroke="grey" stroke-width="2" points="906.1,-323.96 915.48,-319.03 905.08,-317.03 906.1,-323.96"/>
</g>
<!-- 4&#45;&gt;0 -->
<g id="edge4" class="edge">
<title>4&#45;&gt;0</title>
<path fill="none" stroke="grey" stroke-width="2" d="M1010.75,-309.79C1058.35,-307.16 1131.09,-296.31 1179,-257 1219.75,-223.57 1236.88,-191.95 1215,-144 1194.73,-99.57 1176.97,-91.04 1132,-72 1030.67,-29.1 694.68,-20.92 569,-19.37"/>
<polygon fill="grey" stroke="grey" stroke-width="2" points="568.95,-15.87 558.91,-19.25 568.86,-22.86 568.95,-15.87"/>
</g>
<!-- 12 -->
<g id="node13" class="node">
<title>12</title>
<path fill="none" stroke="#56d8c9" stroke-width="2" stroke-dasharray="5,2" d="M851.5,-257C851.5,-257 768.5,-257 768.5,-257 762.5,-257 756.5,-251 756.5,-245 756.5,-245 756.5,-228 756.5,-228 756.5,-222 762.5,-216 768.5,-216 768.5,-216 851.5,-216 851.5,-216 857.5,-216 863.5,-222 863.5,-228 863.5,-228 863.5,-245 863.5,-245 863.5,-251 857.5,-257 851.5,-257"/>
<text text-anchor="middle" x="810" y="-245" font-family="sans" font-size="10.00">Guppy_Aligner</text>
<text text-anchor="middle" x="810" y="-234" font-family="sans" font-size="10.00">project: barcode04</text>
<text text-anchor="middle" x="810" y="-223" font-family="sans" font-size="10.00">quality_filter: 6</text>
</g>
<!-- 4&#45;&gt;12 -->
<g id="edge31" class="edge">
<title>4&#45;&gt;12</title>
<path fill="none" stroke="grey" stroke-width="2" d="M926.74,-292.82C906.95,-283.44 882.13,-271.68 860.47,-261.42"/>
<polygon fill="grey" stroke="grey" stroke-width="2" points="861.94,-258.24 851.4,-257.12 858.94,-264.56 861.94,-258.24"/>
</g>
<!-- 13 -->
<g id="node14" class="node">
<title>13</title>
<path fill="none" stroke="#56d8c9" stroke-width="2" stroke-dasharray="5,2" d="M1004.5,-257C1004.5,-257 921.5,-257 921.5,-257 915.5,-257 909.5,-251 909.5,-245 909.5,-245 909.5,-228 909.5,-228 909.5,-222 915.5,-216 921.5,-216 921.5,-216 1004.5,-216 1004.5,-216 1010.5,-216 1016.5,-222 1016.5,-228 1016.5,-228 1016.5,-245 1016.5,-245 1016.5,-251 1010.5,-257 1004.5,-257"/>
<text text-anchor="middle" x="963" y="-245" font-family="sans" font-size="10.00">Guppy_Aligner</text>
<text text-anchor="middle" x="963" y="-234" font-family="sans" font-size="10.00">project: barcode04</text>
<text text-anchor="middle" x="963" y="-223" font-family="sans" font-size="10.00">quality_filter: 7</text>
</g>
<!-- 4&#45;&gt;13 -->
<g id="edge32" class="edge">
<title>4&#45;&gt;13</title>
<path fill="none" stroke="grey" stroke-width="2" d="M963,-292.82C963,-285.2 963,-276 963,-267.32"/>
<polygon fill="grey" stroke="grey" stroke-width="2" points="966.5,-267.12 963,-257.12 959.5,-267.12 966.5,-267.12"/>
</g>
<!-- 14 -->
<g id="node15" class="node">
<title>14</title>
<path fill="none" stroke="#56d8c9" stroke-width="2" stroke-dasharray="5,2" d="M1157.5,-257C1157.5,-257 1074.5,-257 1074.5,-257 1068.5,-257 1062.5,-251 1062.5,-245 1062.5,-245 1062.5,-228 1062.5,-228 1062.5,-222 1068.5,-216 1074.5,-216 1074.5,-216 1157.5,-216 1157.5,-216 1163.5,-216 1169.5,-222 1169.5,-228 1169.5,-228 1169.5,-245 1169.5,-245 1169.5,-251 1163.5,-257 1157.5,-257"/>
<text text-anchor="middle" x="1116" y="-245" font-family="sans" font-size="10.00">Guppy_Aligner</text>
<text text-anchor="middle" x="1116" y="-234" font-family="sans" font-size="10.00">project: barcode04</text>
<text text-anchor="middle" x="1116" y="-223" font-family="sans" font-size="10.00">quality_filter: 8</text>
</g>
<!-- 4&#45;&gt;14 -->
<g id="edge33" class="edge">
<title>4&#45;&gt;14</title>
<path fill="none" stroke="grey" stroke-width="2" d="M999.26,-292.82C1019.05,-283.44 1043.87,-271.68 1065.53,-261.42"/>
<polygon fill="grey" stroke="grey" stroke-width="2" points="1067.06,-264.56 1074.6,-257.12 1064.06,-258.24 1067.06,-264.56"/>
</g>
<!-- 5&#45;&gt;0 -->
<g id="edge5" class="edge">
<title>5&#45;&gt;0</title>
<path fill="none" stroke="grey" stroke-width="2" d="M130.99,-295.07C117.49,-286 102.48,-273.07 95,-257 67.32,-197.55 114.75,-96.88 145,-72 194.22,-31.52 383.57,-21.95 473.3,-19.7"/>
<polygon fill="grey" stroke="grey" stroke-width="2" points="473.56,-23.19 483.48,-19.46 473.4,-16.19 473.56,-23.19"/>
</g>
<!-- 6 -->
<g id="node7" class="node">
<title>6</title>
<path fill="none" stroke="#56d89a" stroke-width="2" stroke-dasharray="5,2" d="M199.5,-257C199.5,-257 116.5,-257 116.5,-257 110.5,-257 104.5,-251 104.5,-245 104.5,-245 104.5,-228 104.5,-228 104.5,-222 110.5,-216 116.5,-216 116.5,-216 199.5,-216 199.5,-216 205.5,-216 211.5,-222 211.5,-228 211.5,-228 211.5,-245 211.5,-245 211.5,-251 205.5,-257 199.5,-257"/>
<text text-anchor="middle" x="158" y="-245" font-family="sans" font-size="10.00">BLAST</text>
<text text-anchor="middle" x="158" y="-234" font-family="sans" font-size="10.00">project: barcode04</text>
<text text-anchor="middle" x="158" y="-223" font-family="sans" font-size="10.00">quality_filter: 6</text>
</g>
<!-- 5&#45;&gt;6 -->
<g id="edge25" class="edge">
<title>5&#45;&gt;6</title>
<path fill="none" stroke="grey" stroke-width="2" d="M158,-292.82C158,-285.2 158,-276 158,-267.32"/>
<polygon fill="grey" stroke="grey" stroke-width="2" points="161.5,-267.12 158,-257.12 154.5,-267.12 161.5,-267.12"/>
</g>
<!-- 7 -->
<g id="node8" class="node">
<title>7</title>
<path fill="none" stroke="#56d89a" stroke-width="2" stroke-dasharray="5,2" d="M324.5,-257C324.5,-257 241.5,-257 241.5,-257 235.5,-257 229.5,-251 229.5,-245 229.5,-245 229.5,-228 229.5,-228 229.5,-222 235.5,-216 241.5,-216 241.5,-216 324.5,-216 324.5,-216 330.5,-216 336.5,-222 336.5,-228 336.5,-228 336.5,-245 336.5,-245 336.5,-251 330.5,-257 324.5,-257"/>
<text text-anchor="middle" x="283" y="-245" font-family="sans" font-size="10.00">BLAST</text>
<text text-anchor="middle" x="283" y="-234" font-family="sans" font-size="10.00">project: barcode04</text>
<text text-anchor="middle" x="283" y="-223" font-family="sans" font-size="10.00">quality_filter: 7</text>
</g>
<!-- 5&#45;&gt;7 -->
<g id="edge26" class="edge">
<title>5&#45;&gt;7</title>
<path fill="none" stroke="grey" stroke-width="2" d="M185.12,-294.27C201.29,-284.89 222.17,-272.78 240.48,-262.16"/>
<polygon fill="grey" stroke="grey" stroke-width="2" points="242.34,-265.13 249.24,-257.08 238.83,-259.07 242.34,-265.13"/>
</g>
<!-- 8 -->
<g id="node9" class="node">
<title>8</title>
<path fill="none" stroke="#56d89a" stroke-width="2" stroke-dasharray="5,2" d="M449.5,-257C449.5,-257 366.5,-257 366.5,-257 360.5,-257 354.5,-251 354.5,-245 354.5,-245 354.5,-228 354.5,-228 354.5,-222 360.5,-216 366.5,-216 366.5,-216 449.5,-216 449.5,-216 455.5,-216 461.5,-222 461.5,-228 461.5,-228 461.5,-245 461.5,-245 461.5,-251 455.5,-257 449.5,-257"/>
<text text-anchor="middle" x="408" y="-245" font-family="sans" font-size="10.00">BLAST</text>
<text text-anchor="middle" x="408" y="-234" font-family="sans" font-size="10.00">project: barcode04</text>
<text text-anchor="middle" x="408" y="-223" font-family="sans" font-size="10.00">quality_filter: 8</text>
</g>
<!-- 5&#45;&gt;8 -->
<g id="edge27" class="edge">
<title>5&#45;&gt;8</title>
<path fill="none" stroke="grey" stroke-width="2" d="M185,-302.57C219.63,-292.99 281.77,-275.63 344.71,-257.05"/>
<polygon fill="grey" stroke="grey" stroke-width="2" points="345.81,-260.38 354.41,-254.18 343.83,-253.67 345.81,-260.38"/>
</g>
<!-- 6&#45;&gt;0 -->
<g id="edge6" class="edge">
<title>6&#45;&gt;0</title>
<path fill="none" stroke="grey" stroke-width="2" d="M145.72,-215.65C135.77,-196.96 124.66,-168.3 133,-144 146.16,-105.65 154.11,-92.63 189,-72 236.18,-44.1 392.83,-28.61 472.93,-22.34"/>
<polygon fill="grey" stroke="grey" stroke-width="2" points="473.54,-25.8 483.24,-21.55 473,-18.82 473.54,-25.8"/>
</g>
<!-- 9 -->
<g id="node10" class="node">
<title>9</title>
<path fill="none" stroke="#70d856" stroke-width="2" stroke-dasharray="5,2" d="M228,-180C228,-180 154,-180 154,-180 148,-180 142,-174 142,-168 142,-168 142,-156 142,-156 142,-150 148,-144 154,-144 154,-144 228,-144 228,-144 234,-144 240,-150 240,-156 240,-156 240,-168 240,-168 240,-174 234,-180 228,-180"/>
<text text-anchor="middle" x="191" y="-159.5" font-family="sans" font-size="10.00">BLAST_16S_ppm</text>
</g>
<!-- 6&#45;&gt;9 -->
<g id="edge28" class="edge">
<title>6&#45;&gt;9</title>
<path fill="none" stroke="grey" stroke-width="2" d="M167.02,-215.69C170.68,-207.65 174.96,-198.24 178.89,-189.61"/>
<polygon fill="grey" stroke="grey" stroke-width="2" points="182.16,-190.87 183.12,-180.32 175.79,-187.97 182.16,-190.87"/>
</g>
<!-- 7&#45;&gt;0 -->
<g id="edge7" class="edge">
<title>7&#45;&gt;0</title>
<path fill="none" stroke="grey" stroke-width="2" d="M273.78,-215.82C259.58,-182.26 237.32,-113.57 271,-72 295.95,-41.2 407.88,-27.58 473.2,-22.15"/>
<polygon fill="grey" stroke="grey" stroke-width="2" points="473.57,-25.64 483.26,-21.35 473.02,-18.66 473.57,-25.64"/>
</g>
<!-- 10 -->
<g id="node11" class="node">
<title>10</title>
<path fill="none" stroke="#70d856" stroke-width="2" stroke-dasharray="5,2" d="M382,-180C382,-180 308,-180 308,-180 302,-180 296,-174 296,-168 296,-168 296,-156 296,-156 296,-150 302,-144 308,-144 308,-144 382,-144 382,-144 388,-144 394,-150 394,-156 394,-156 394,-168 394,-168 394,-174 388,-180 382,-180"/>
<text text-anchor="middle" x="345" y="-159.5" font-family="sans" font-size="10.00">BLAST_16S_ppm</text>
</g>
<!-- 7&#45;&gt;10 -->
<g id="edge29" class="edge">
<title>7&#45;&gt;10</title>
<path fill="none" stroke="grey" stroke-width="2" d="M299.94,-215.69C307.26,-207.13 315.91,-197.02 323.66,-187.95"/>
<polygon fill="grey" stroke="grey" stroke-width="2" points="326.35,-190.19 330.19,-180.32 321.03,-185.64 326.35,-190.19"/>
</g>
<!-- 8&#45;&gt;0 -->
<g id="edge8" class="edge">
<title>8&#45;&gt;0</title>
<path fill="none" stroke="grey" stroke-width="2" d="M416.85,-215.79C430.98,-184.74 459.9,-122.72 488,-72 492.94,-63.09 498.7,-53.57 504.01,-45.1"/>
<polygon fill="grey" stroke="grey" stroke-width="2" points="507.14,-46.72 509.54,-36.4 501.23,-42.96 507.14,-46.72"/>
</g>
<!-- 11 -->
<g id="node12" class="node">
<title>11</title>
<path fill="none" stroke="#70d856" stroke-width="2" stroke-dasharray="5,2" d="M770,-180C770,-180 696,-180 696,-180 690,-180 684,-174 684,-168 684,-168 684,-156 684,-156 684,-150 690,-144 696,-144 696,-144 770,-144 770,-144 776,-144 782,-150 782,-156 782,-156 782,-168 782,-168 782,-174 776,-180 770,-180"/>
<text text-anchor="middle" x="733" y="-159.5" font-family="sans" font-size="10.00">BLAST_16S_ppm</text>
</g>
<!-- 8&#45;&gt;11 -->
<g id="edge30" class="edge">
<title>8&#45;&gt;11</title>
<path fill="none" stroke="grey" stroke-width="2" d="M461.73,-225.64C513.63,-215.83 594.64,-199.74 673.6,-180.26"/>
<polygon fill="grey" stroke="grey" stroke-width="2" points="674.85,-183.55 683.71,-177.74 673.16,-176.76 674.85,-183.55"/>
</g>
<!-- 9&#45;&gt;0 -->
<g id="edge9" class="edge">
<title>9&#45;&gt;0</title>
<path fill="none" stroke="grey" stroke-width="2" d="M189.43,-143.91C188.6,-123.74 190.62,-90.59 210,-72 246.93,-36.57 395.64,-24.63 473.28,-20.76"/>
<polygon fill="grey" stroke="grey" stroke-width="2" points="473.47,-24.25 483.29,-20.28 473.14,-17.26 473.47,-24.25"/>
</g>
<!-- 18 -->
<g id="node19" class="node">
<title>18</title>
<path fill="none" stroke="#d85656" stroke-width="2" stroke-dasharray="5,2" d="M424,-108C424,-108 302,-108 302,-108 296,-108 290,-102 290,-96 290,-96 290,-84 290,-84 290,-78 296,-72 302,-72 302,-72 424,-72 424,-72 430,-72 436,-78 436,-84 436,-84 436,-96 436,-96 436,-102 430,-108 424,-108"/>
<text text-anchor="middle" x="363" y="-87.5" font-family="sans" font-size="10.00">OTU_COMBINER_CLEANER</text>
</g>
<!-- 9&#45;&gt;18 -->
<g id="edge38" class="edge">
<title>9&#45;&gt;18</title>
<path fill="none" stroke="grey" stroke-width="2" d="M233.08,-143.88C256.8,-134.22 286.62,-122.09 311.7,-111.88"/>
<polygon fill="grey" stroke="grey" stroke-width="2" points="313.12,-115.08 321.06,-108.07 310.48,-108.6 313.12,-115.08"/>
</g>
<!-- 10&#45;&gt;0 -->
<g id="edge10" class="edge">
<title>10&#45;&gt;0</title>
<path fill="none" stroke="grey" stroke-width="2" d="M314.23,-143.91C301.46,-135.02 288,-122.88 281,-108 274.19,-93.52 270.98,-84.47 281,-72 304.6,-42.61 409.93,-28.55 472.94,-22.65"/>
<polygon fill="grey" stroke="grey" stroke-width="2" points="473.4,-26.12 483.05,-21.74 472.77,-19.15 473.4,-26.12"/>
</g>
<!-- 19 -->
<g id="node20" class="node">
<title>19</title>
<path fill="none" stroke="#d85656" stroke-width="2" stroke-dasharray="5,2" d="M778,-108C778,-108 656,-108 656,-108 650,-108 644,-102 644,-96 644,-96 644,-84 644,-84 644,-78 650,-72 656,-72 656,-72 778,-72 778,-72 784,-72 790,-78 790,-84 790,-84 790,-96 790,-96 790,-102 784,-108 778,-108"/>
<text text-anchor="middle" x="717" y="-87.5" font-family="sans" font-size="10.00">OTU_COMBINER_CLEANER</text>
</g>
<!-- 10&#45;&gt;19 -->
<g id="edge40" class="edge">
<title>10&#45;&gt;19</title>
<path fill="none" stroke="grey" stroke-width="2" d="M394.02,-151.78C454.97,-140.31 559.98,-120.55 633.67,-106.68"/>
<polygon fill="grey" stroke="grey" stroke-width="2" points="634.67,-110.05 643.85,-104.76 633.38,-103.17 634.67,-110.05"/>
</g>
<!-- 11&#45;&gt;0 -->
<g id="edge11" class="edge">
<title>11&#45;&gt;0</title>
<path fill="none" stroke="grey" stroke-width="2" d="M683.71,-146.91C657.97,-138.16 626.76,-125.25 602,-108 588.49,-98.59 560.9,-67.02 541.7,-44.15"/>
<polygon fill="grey" stroke="grey" stroke-width="2" points="544.14,-41.61 535.05,-36.18 538.77,-46.1 544.14,-41.61"/>
</g>
<!-- 20 -->
<g id="node21" class="node">
<title>20</title>
<path fill="none" stroke="#d85656" stroke-width="2" stroke-dasharray="5,2" d="M980,-108C980,-108 858,-108 858,-108 852,-108 846,-102 846,-96 846,-96 846,-84 846,-84 846,-78 852,-72 858,-72 858,-72 980,-72 980,-72 986,-72 992,-78 992,-84 992,-84 992,-96 992,-96 992,-102 986,-108 980,-108"/>
<text text-anchor="middle" x="919" y="-87.5" font-family="sans" font-size="10.00">OTU_COMBINER_CLEANER</text>
</g>
<!-- 11&#45;&gt;20 -->
<g id="edge42" class="edge">
<title>11&#45;&gt;20</title>
<path fill="none" stroke="grey" stroke-width="2" d="M778.5,-143.88C804.38,-134.14 836.97,-121.87 864.24,-111.61"/>
<polygon fill="grey" stroke="grey" stroke-width="2" points="865.52,-114.87 873.65,-108.07 863.06,-108.31 865.52,-114.87"/>
</g>
<!-- 12&#45;&gt;0 -->
<g id="edge12" class="edge">
<title>12&#45;&gt;0</title>
<path fill="none" stroke="grey" stroke-width="2" d="M811.61,-215.91C812.17,-195.22 809.61,-163.02 791,-144 741.24,-93.13 697.24,-142.49 635,-108 615.21,-97.03 616.44,-86.42 599,-72 586.06,-61.3 570.98,-50.67 557.54,-41.77"/>
<polygon fill="grey" stroke="grey" stroke-width="2" points="559.27,-38.72 548.98,-36.18 555.44,-44.58 559.27,-38.72"/>
</g>
<!-- 15 -->
<g id="node16" class="node">
<title>15</title>
<path fill="none" stroke="#5682d8" stroke-width="2" stroke-dasharray="5,2" d="M654,-180C654,-180 530,-180 530,-180 524,-180 518,-174 518,-168 518,-168 518,-156 518,-156 518,-150 524,-144 530,-144 530,-144 654,-144 654,-144 660,-144 666,-150 666,-156 666,-156 666,-168 666,-168 666,-174 660,-180 654,-180"/>
<text text-anchor="middle" x="592" y="-159.5" font-family="sans" font-size="10.00">GUPPY_ALIGNER_16S_ppm</text>
</g>
<!-- 12&#45;&gt;15 -->
<g id="edge34" class="edge">
<title>12&#45;&gt;15</title>
<path fill="none" stroke="grey" stroke-width="2" d="M756.39,-217.67C725.09,-207.26 685.48,-194.09 652.99,-183.28"/>
<polygon fill="grey" stroke="grey" stroke-width="2" points="653.74,-179.85 643.15,-180.01 651.53,-186.49 653.74,-179.85"/>
</g>
<!-- 13&#45;&gt;0 -->
<g id="edge13" class="edge">
<title>13&#45;&gt;0</title>
<path fill="none" stroke="grey" stroke-width="2" d="M977.18,-215.93C999.72,-182.22 1037.65,-112.92 1001,-72 972.49,-40.17 684.93,-25.42 569.03,-20.74"/>
<polygon fill="grey" stroke="grey" stroke-width="2" points="568.82,-17.23 558.69,-20.33 568.55,-24.22 568.82,-17.23"/>
</g>
<!-- 16 -->
<g id="node17" class="node">
<title>16</title>
<path fill="none" stroke="#5682d8" stroke-width="2" stroke-dasharray="5,2" d="M974,-180C974,-180 850,-180 850,-180 844,-180 838,-174 838,-168 838,-168 838,-156 838,-156 838,-150 844,-144 850,-144 850,-144 974,-144 974,-144 980,-144 986,-150 986,-156 986,-156 986,-168 986,-168 986,-174 980,-180 974,-180"/>
<text text-anchor="middle" x="912" y="-159.5" font-family="sans" font-size="10.00">GUPPY_ALIGNER_16S_ppm</text>
</g>
<!-- 13&#45;&gt;16 -->
<g id="edge35" class="edge">
<title>13&#45;&gt;16</title>
<path fill="none" stroke="grey" stroke-width="2" d="M949.06,-215.69C943.16,-207.3 936.22,-197.42 929.94,-188.5"/>
<polygon fill="grey" stroke="grey" stroke-width="2" points="932.8,-186.48 924.18,-180.32 927.07,-190.51 932.8,-186.48"/>
</g>
<!-- 14&#45;&gt;0 -->
<g id="edge14" class="edge">
<title>14&#45;&gt;0</title>
<path fill="none" stroke="grey" stroke-width="2" d="M1161.8,-215.82C1176.38,-207.1 1190.83,-195.29 1199,-180 1206.54,-165.89 1207.12,-157.78 1199,-144 1165.47,-87.1 1132.08,-91.59 1069,-72 976.17,-43.17 684.91,-26.7 569.14,-21.14"/>
<polygon fill="grey" stroke="grey" stroke-width="2" points="568.98,-17.63 558.82,-20.65 568.65,-24.62 568.98,-17.63"/>
</g>
<!-- 17 -->
<g id="node18" class="node">
<title>17</title>
<path fill="none" stroke="#5682d8" stroke-width="2" stroke-dasharray="5,2" d="M1178,-180C1178,-180 1054,-180 1054,-180 1048,-180 1042,-174 1042,-168 1042,-168 1042,-156 1042,-156 1042,-150 1048,-144 1054,-144 1054,-144 1178,-144 1178,-144 1184,-144 1190,-150 1190,-156 1190,-156 1190,-168 1190,-168 1190,-174 1184,-180 1178,-180"/>
<text text-anchor="middle" x="1116" y="-159.5" font-family="sans" font-size="10.00">GUPPY_ALIGNER_16S_ppm</text>
</g>
<!-- 14&#45;&gt;17 -->
<g id="edge36" class="edge">
<title>14&#45;&gt;17</title>
<path fill="none" stroke="grey" stroke-width="2" d="M1116,-215.69C1116,-207.91 1116,-198.84 1116,-190.45"/>
<polygon fill="grey" stroke="grey" stroke-width="2" points="1119.5,-190.32 1116,-180.32 1112.5,-190.32 1119.5,-190.32"/>
</g>
<!-- 15&#45;&gt;0 -->
<g id="edge15" class="edge">
<title>15&#45;&gt;0</title>
<path fill="none" stroke="grey" stroke-width="2" d="M582.76,-143.9C577.23,-133.55 570.1,-120.07 564,-108 553.42,-87.07 541.88,-63.11 533.42,-45.34"/>
<polygon fill="grey" stroke="grey" stroke-width="2" points="536.51,-43.69 529.06,-36.15 530.19,-46.69 536.51,-43.69"/>
</g>
<!-- 15&#45;&gt;18 -->
<g id="edge37" class="edge">
<title>15&#45;&gt;18</title>
<path fill="none" stroke="grey" stroke-width="2" d="M536.27,-143.97C503.86,-134.06 462.82,-121.51 428.82,-111.12"/>
<polygon fill="grey" stroke="grey" stroke-width="2" points="429.56,-107.69 418.98,-108.11 427.52,-114.38 429.56,-107.69"/>
</g>
<!-- 16&#45;&gt;0 -->
<g id="edge16" class="edge">
<title>16&#45;&gt;0</title>
<path fill="none" stroke="grey" stroke-width="2" d="M885.99,-143.97C871.24,-133.98 852.66,-120.84 837,-108 819.01,-93.25 819.71,-82.61 799,-72 724.69,-33.94 626.55,-23.05 568.95,-20.04"/>
<polygon fill="grey" stroke="grey" stroke-width="2" points="568.83,-16.53 558.68,-19.56 568.51,-23.52 568.83,-16.53"/>
</g>
<!-- 16&#45;&gt;19 -->
<g id="edge39" class="edge">
<title>16&#45;&gt;19</title>
<path fill="none" stroke="grey" stroke-width="2" d="M864.3,-143.88C837.05,-134.09 802.7,-121.77 774.03,-111.47"/>
<polygon fill="grey" stroke="grey" stroke-width="2" points="775.14,-108.15 764.55,-108.07 772.78,-114.74 775.14,-108.15"/>
</g>
<!-- 17&#45;&gt;0 -->
<g id="edge17" class="edge">
<title>17&#45;&gt;0</title>
<path fill="none" stroke="grey" stroke-width="2" d="M1105.74,-143.77C1092.22,-122.8 1066.31,-88.19 1034,-72 953.16,-31.48 680.53,-21.91 569.08,-19.67"/>
<polygon fill="grey" stroke="grey" stroke-width="2" points="568.88,-16.17 558.81,-19.48 568.74,-23.17 568.88,-16.17"/>
</g>
<!-- 17&#45;&gt;20 -->
<g id="edge41" class="edge">
<title>17&#45;&gt;20</title>
<path fill="none" stroke="grey" stroke-width="2" d="M1068.06,-143.97C1040.53,-134.19 1005.78,-121.84 976.76,-111.52"/>
<polygon fill="grey" stroke="grey" stroke-width="2" points="977.75,-108.16 967.15,-108.11 975.41,-114.76 977.75,-108.16"/>
</g>
<!-- 18&#45;&gt;0 -->
<g id="edge18" class="edge">
<title>18&#45;&gt;0</title>
<path fill="none" stroke="grey" stroke-width="2" d="M401.65,-71.88C423.49,-62.2 450.96,-50.03 474.03,-39.81"/>
<polygon fill="grey" stroke="grey" stroke-width="2" points="475.57,-42.96 483.29,-35.71 472.73,-36.56 475.57,-42.96"/>
</g>
<!-- 19&#45;&gt;0 -->
<g id="edge19" class="edge">
<title>19&#45;&gt;0</title>
<path fill="none" stroke="grey" stroke-width="2" d="M669.3,-71.97C638.63,-61.01 598.93,-46.83 568.33,-35.9"/>
<polygon fill="grey" stroke="grey" stroke-width="2" points="569.33,-32.55 558.74,-32.48 566.98,-39.14 569.33,-32.55"/>
</g>
<!-- 20&#45;&gt;0 -->
<g id="edge20" class="edge">
<title>20&#45;&gt;0</title>
<path fill="none" stroke="grey" stroke-width="2" d="M845.92,-74.59C841.21,-73.7 836.54,-72.83 832,-72 739.05,-55 630.14,-36.84 568.99,-26.81"/>
<polygon fill="grey" stroke="grey" stroke-width="2" points="569.31,-23.31 558.87,-25.15 568.17,-30.22 569.31,-23.31"/>
</g>
</g>
</svg>
