<?xml version="1.0" encoding="UTF-8" standalone="no"?>
<!DOCTYPE svg PUBLIC "-//W3C//DTD SVG 1.1//EN"
 "http://www.w3.org/Graphics/SVG/1.1/DTD/svg11.dtd">
<!-- Generated by graphviz version 2.50.0 (20211209.0339)
 -->
<!-- Title: snakemake_dag Pages: 1 -->
<svg width="240pt" height="260pt"
 viewBox="0.00 0.00 240.02 260.00" xmlns="http://www.w3.org/2000/svg" xmlns:xlink="http://www.w3.org/1999/xlink">
<g id="graph0" class="graph" transform="scale(1 1) rotate(0) translate(4 256)">
<title>snakemake_dag</title>
<polygon fill="white" stroke="transparent" points="-4,4 -4,-256 236.02,-256 236.02,4 -4,4"/>
<!-- 0 -->
<g id="node1" class="node">
<title>0</title>
<path fill="none" stroke="#d8bc56" stroke-width="2" d="M104.02,-36C104.02,-36 53.02,-36 53.02,-36 47.02,-36 41.02,-30 41.02,-24 41.02,-24 41.02,-12 41.02,-12 41.02,-6 47.02,0 53.02,0 53.02,0 104.02,0 104.02,0 110.02,0 116.02,-6 116.02,-12 116.02,-12 116.02,-24 116.02,-24 116.02,-30 110.02,-36 104.02,-36"/>
<text text-anchor="middle" x="78.52" y="-15.5" font-family="sans" font-size="10.00">cONTsensus</text>
</g>
<!-- 1 -->
<g id="node2" class="node">
<title>1</title>
<path fill="none" stroke="#56c1d8" stroke-width="2" d="M55.52,-252C55.52,-252 25.52,-252 25.52,-252 19.52,-252 13.52,-246 13.52,-240 13.52,-240 13.52,-228 13.52,-228 13.52,-222 19.52,-216 25.52,-216 25.52,-216 55.52,-216 55.52,-216 61.52,-216 67.52,-222 67.52,-228 67.52,-228 67.52,-240 67.52,-240 67.52,-246 61.52,-252 55.52,-252"/>
<text text-anchor="middle" x="40.52" y="-231.5" font-family="sans" font-size="10.00">Init</text>
</g>
<!-- 1&#45;&gt;0 -->
<g id="edge1" class="edge">
<title>1&#45;&gt;0</title>
<path fill="none" stroke="grey" stroke-width="2" d="M30.38,-215.6C13.97,-185.01 -14.26,-120.26 9.52,-72 15.48,-59.91 25.67,-49.8 36.42,-41.77"/>
<polygon fill="grey" stroke="grey" stroke-width="2" points="38.47,-44.61 44.69,-36.04 34.48,-38.86 38.47,-44.61"/>
</g>
<!-- 2 -->
<g id="node3" class="node">
<title>2</title>
<path fill="none" stroke="#56d88a" stroke-width="2" d="M68.52,-108C68.52,-108 30.52,-108 30.52,-108 24.52,-108 18.52,-102 18.52,-96 18.52,-96 18.52,-84 18.52,-84 18.52,-78 24.52,-72 30.52,-72 30.52,-72 68.52,-72 68.52,-72 74.52,-72 80.52,-78 80.52,-84 80.52,-84 80.52,-96 80.52,-96 80.52,-102 74.52,-108 68.52,-108"/>
<text text-anchor="middle" x="49.52" y="-87.5" font-family="sans" font-size="10.00">Porechop</text>
</g>
<!-- 1&#45;&gt;2 -->
<g id="edge5" class="edge">
<title>1&#45;&gt;2</title>
<path fill="none" stroke="grey" stroke-width="2" d="M41.61,-215.87C43.14,-191.67 45.96,-147.21 47.79,-118.39"/>
<polygon fill="grey" stroke="grey" stroke-width="2" points="51.29,-118.39 48.43,-108.19 44.31,-117.95 51.29,-118.39"/>
</g>
<!-- 3 -->
<g id="node4" class="node">
<title>3</title>
<path fill="none" stroke="#88d856" stroke-width="2" d="M154.02,-180C154.02,-180 81.02,-180 81.02,-180 75.02,-180 69.02,-174 69.02,-168 69.02,-168 69.02,-156 69.02,-156 69.02,-150 75.02,-144 81.02,-144 81.02,-144 154.02,-144 154.02,-144 160.02,-144 166.02,-150 166.02,-156 166.02,-156 166.02,-168 166.02,-168 166.02,-174 160.02,-180 154.02,-180"/>
<text text-anchor="middle" x="117.52" y="-159.5" font-family="sans" font-size="10.00">Guppy_Barcoder</text>
</g>
<!-- 1&#45;&gt;3 -->
<g id="edge6" class="edge">
<title>1&#45;&gt;3</title>
<path fill="none" stroke="grey" stroke-width="2" d="M59.56,-215.7C69.07,-207.05 80.73,-196.45 91.09,-187.03"/>
<polygon fill="grey" stroke="grey" stroke-width="2" points="93.66,-189.42 98.71,-180.1 88.95,-184.24 93.66,-189.42"/>
</g>
<!-- 2&#45;&gt;0 -->
<g id="edge2" class="edge">
<title>2&#45;&gt;0</title>
<path fill="none" stroke="grey" stroke-width="2" d="M56.69,-71.7C59.96,-63.81 63.9,-54.3 67.53,-45.55"/>
<polygon fill="grey" stroke="grey" stroke-width="2" points="70.84,-46.68 71.44,-36.1 64.38,-44 70.84,-46.68"/>
</g>
<!-- 3&#45;&gt;0 -->
<g id="edge3" class="edge">
<title>3&#45;&gt;0</title>
<path fill="none" stroke="grey" stroke-width="2" d="M112.82,-143.87C106.14,-119.56 93.85,-74.82 85.94,-46.01"/>
<polygon fill="grey" stroke="grey" stroke-width="2" points="89.27,-44.91 83.24,-36.19 82.52,-46.76 89.27,-44.91"/>
</g>
<!-- 4 -->
<g id="node5" class="node">
<title>4</title>
<path fill="none" stroke="#d85656" stroke-width="2" d="M220.02,-108C220.02,-108 149.02,-108 149.02,-108 143.02,-108 137.02,-102 137.02,-96 137.02,-96 137.02,-84 137.02,-84 137.02,-78 143.02,-72 149.02,-72 149.02,-72 220.02,-72 220.02,-72 226.02,-72 232.02,-78 232.02,-84 232.02,-84 232.02,-96 232.02,-96 232.02,-102 226.02,-108 220.02,-108"/>
<text text-anchor="middle" x="184.52" y="-87.5" font-family="sans" font-size="10.00">ProwlerTrimmer</text>
</g>
<!-- 3&#45;&gt;4 -->
<g id="edge7" class="edge">
<title>3&#45;&gt;4</title>
<path fill="none" stroke="grey" stroke-width="2" d="M134.09,-143.7C142.2,-135.22 152.11,-124.86 160.99,-115.58"/>
<polygon fill="grey" stroke="grey" stroke-width="2" points="163.77,-117.75 168.15,-108.1 158.71,-112.91 163.77,-117.75"/>
</g>
<!-- 4&#45;&gt;0 -->
<g id="edge4" class="edge">
<title>4&#45;&gt;0</title>
<path fill="none" stroke="grey" stroke-width="2" d="M158.59,-71.88C144.86,-62.81 127.82,-51.55 112.99,-41.76"/>
<polygon fill="grey" stroke="grey" stroke-width="2" points="114.83,-38.78 104.55,-36.19 110.97,-44.62 114.83,-38.78"/>
</g>
</g>
</svg>
